<svg
   xmlns="http://www.w3.org/2000/svg"
   width="3000mm"
   height="3000mm"
   viewBox="0 0 3000 3000">
  <g>
    <path
       style="fill:#0d66a2"
       d="m 1450.0563,2853.2107 c -0.3765,-188.3761 -8.6413,-484.0556 -13.1771,-471.4371 -2.4543,6.8283 -30.1246,133.8576 -61.4894,282.2875 -31.3648,148.43 -58.5647,269.8932 -60.444,269.918 -3.7074,0.051 0.9569,-70.6914 15.9828,-242.3958 5.2898,-60.4488 12.6484,-149.1823 16.3528,-197.1857 3.7042,-48.0033 8.1632,-98.4028 9.9086,-111.9987 3.5698,-27.804 -6.1387,-27.4892 -12.7907,0.4143 -2.3392,9.8121 -28.9425,94.9365 -59.1185,189.1653 -55.7748,174.1651 -93.9178,294.9753 -101.7037,322.1261 -2.3712,8.2686 -5.6271,13.7075 -7.2355,12.0865 -1.6085,-1.621 8.9405,-69.4813 23.4421,-150.8007 51.9725,-291.4431 57.6615,-323.0485 66.5918,-369.953 10.6946,-56.1714 6.0752,-53.6037 -21.5587,11.9835 -11.2365,26.6685 -27.7474,64.4893 -36.6912,84.0462 -8.9438,19.557 -21.4068,48.6499 -27.6959,64.651 -6.2887,16.0012 -20.407,48.8037 -31.3737,72.8944 -10.967,24.0907 -19.9396,44.9802 -19.9396,46.4208 0,1.4409 -8.6604,21.4763 -19.2454,44.5233 -10.585,23.047 -19.2454,43.4122 -19.2454,45.2558 0,1.8434 -8.2543,21.738 -18.3428,44.2099 -10.0884,22.4719 -20.2603,46.3656 -22.604,53.0973 -2.3436,6.7316 -5.7841,10.7044 -7.6454,8.8285 -1.8615,-1.8758 23.0295,-96.1172 55.3132,-209.4249 32.2837,-113.3077 65.4109,-230.743 73.616,-260.9674 8.2049,-30.2244 16.889,-60.0447 19.2978,-66.2673 2.5628,-6.62 1.4336,-11.3139 -2.7215,-11.3139 -3.9058,0 -7.1015,2.8371 -7.1015,6.3048 0,7.935 -270.9588,498.5929 -273.77402,495.7559 -1.13835,-1.1474 6.46023,-23.6649 16.88592,-50.039 113.0559,-286.0012 193.0697,-492.632 191.41,-494.3045 -1.119,-1.1277 -12.1039,13.035 -24.4107,31.4726 -64.1247,96.0705 -308.98272,450.4373 -311.23988,450.4373 -3.3379,0 4.44647,-21.5588 9.33751,-25.8603 2.02159,-1.778 39.44097,-74.5105 83.1546,-161.6276 43.71335,-87.1173 99.47232,-197.2387 123.90878,-244.7143 24.43649,-47.4757 43.52039,-87.2104 42.40859,-88.2994 -1.1118,-1.0892 -33.7762,35.8035 -72.58763,81.9836 -38.81166,46.1804 -74.9823,88.8243 -80.37939,94.7647 -5.39681,5.9403 -40.03866,46.8663 -76.98166,90.9468 -36.94291,44.0804 -85.7038,102.2665 -108.35782,129.3021 -49.50697,59.0825 -47.4615,49.5562 7.67214,-35.7293 55.12436,-85.2715 115.72469,-179.9438 162.18424,-253.3714 20.96941,-33.1415 53.50113,-83.6429 72.29245,-112.2255 18.79142,-28.5824 31.31962,-50.9246 27.84049,-49.6495 -3.47942,1.2752 -82.36406,76.7681 -175.29949,167.762 -220.54717,215.9399 -237.39569,232.1605 -241.15003,232.1605 -1.74261,0 -0.36279,-3.6367 3.06636,-8.0816 3.42906,-4.4447 21.76267,-28.4463 40.74118,-53.337 18.97867,-24.8907 36.076,-46.7104 37.99416,-48.4883 1.91796,-1.7778 25.03628,-30.8709 51.37369,-64.651 26.33751,-33.7801 87.8294,-111.9169 136.64858,-173.6374 48.81937,-61.7203 85.77494,-111.1785 82.12365,-109.9067 -6.1798,2.1524 -89.38709,68.2016 -342.97831,272.2533 -56.35908,45.3494 -103.85625,81.0572 -105.54936,79.3507 -1.69331,-1.7063 34.61488,-41.7195 80.68486,-88.9183 46.06988,-47.1986 98.84616,-101.817 117.2804,-121.3738 18.43423,-19.557 71.36619,-74.6356 117.6266,-122.3971 46.26032,-47.7614 79.35183,-85.0598 73.53646,-82.8854 -5.81556,2.1746 -49.11797,29.3029 -96.22721,60.2853 -47.10944,30.9825 -114.52158,75.1931 -149.80492,98.2455 -35.28318,23.0525 -74.25522,48.5192 -86.60429,56.5928 -50.8632,33.2529 -132.15077,84.9051 -141.13304,89.6792 -10.06803,5.3514 30.91535,-35.1784 58.14075,-57.4971 16.4834,-13.5129 145.01913,-123.5189 172.80427,-147.8929 8.82074,-7.7379 33.33898,-28.5402 54.48482,-46.2272 21.14583,-17.6872 41.56889,-35.0679 45.38451,-38.6235 14.85429,-13.8428 79.73463,-69.6926 90.6685,-78.0492 23.29377,-17.8024 -1.27552,-8.4264 -58.27308,22.2376 -127.73872,68.7223 -453.02161,234.4024 -453.02161,230.743 0,-2.14 12.27705,-11.8276 27.28233,-21.5277 15.00528,-9.7003 56.14236,-38.1891 91.41554,-63.3089 35.27337,-25.1198 128.38425,-90.3171 206.91311,-144.8829 78.52881,-54.5658 141.67157,-100.3273 140.31727,-101.692 -2.03019,-2.0461 -339.36104,130.0442 -440.2677,172.3975 -58.64409,24.6147 -96.22703,38.7772 -96.22703,36.2616 0,-3.0545 3.09798,-4.8311 261.46458,-149.9305 228.85896,-128.5278 245.17707,-138.1675 233.94846,-138.2006 -4.49645,-0.013 -52.43267,13.0111 -106.52473,28.943 -54.0923,15.9322 -124.02705,36.0935 -155.41076,44.803 -31.3837,8.7097 -107.57685,30.586 -169.31814,48.614 -61.74119,18.028 -115.14721,32.6988 -118.67999,32.6019 -3.53278,-0.097 25.33179,-14.1275 64.14327,-31.1787 75.31609,-33.0888 363.67015,-159.1866 433.02166,-189.3611 47.63753,-20.7268 43.34621,-21.9789 -30.32327,-8.8462 -79.2786,14.1322 -395.49856,72.5382 -453.57271,83.7748 -27.98075,5.414 -51.94238,8.7668 -53.24806,7.451 -1.30568,-1.3158 49.01251,-18.9682 111.81801,-39.2275 62.80559,-20.2594 187.80555,-61.2864 277.77795,-91.1708 l 163.58595,-54.3356 -51.32101,3.2005 c -28.22671,1.7604 -159.11502,12.124 -290.86298,23.0306 -131.74807,10.9064 -240.706001,18.6568 -242.128741,17.2229 -1.42274,-1.4337 26.983821,-8.75 63.125751,-16.258 62.17696,-12.917 174.13389,-37.1788 404.39089,-87.6349 55.72538,-12.2109 103.11708,-24.0143 105.31509,-26.2294 2.1982,-2.2153 -75.15007,-4.3909 -171.88508,-4.8347 -96.73481,-0.4438 -227.8441,-2.6856 -291.35401,-4.982 -124.443251,-4.4992 -122.783097,-5.8228 28.86815,-23.0131 307.07462,-34.8082 425.99874,-49.2441 428.78148,-52.0485 1.74406,-1.7576 1.45203,-3.1958 -0.64892,-3.1958 -2.10105,0 -66.81383,-7.1676 -143.80593,-15.928 -288.25149,-32.798 -428.858667,-49.3291 -435.080617,-51.1524 -10.11143,-2.9632 312.977667,-10.5007 450.098467,-10.5007 68.22999,0 124.0545,-2.53 124.0545,-5.6225 0,-3.0922 -31.03328,-12.0732 -68.96282,-19.9576 -37.92939,-7.8843 -139.68952,-29.8639 -226.13349,-48.8434 -86.44387,-18.9795 -182.33818,-39.6693 -213.09838,-45.9773 -100.871183,-20.6857 -95.86298,-20.4393 352.29393,17.3432 81.85018,6.9003 155.46393,12.3871 163.58605,12.193 17.77884,-0.4254 -31.87245,-18.644 -174.47883,-64.0221 -206.30919,-65.649 -365.86797,-118.5957 -363.76934,-120.7107 1.16957,-1.1788 47.88528,6.5468 103.81237,17.1682 55.92718,10.6213 119.25429,22.228 140.72676,25.7927 38.89141,6.4562 52.41624,8.9216 227.49001,41.4655 50.72211,9.4287 93.45216,15.9035 94.95552,14.3883 1.50346,-1.5152 -18.3454,-11.6999 -44.10852,-22.6325 -25.76311,-10.9326 -77.15348,-33.3363 -114.20088,-49.7857 -37.04741,-16.4497 -116.43471,-51.2304 -176.41618,-77.2906 -126.93465,-55.1496 -197.83134,-88.64405 -179.62388,-84.8616 14.73325,3.0607 202.34818,56.9545 508.61896,146.1046 31.35548,9.1271 38.66522,9.7325 32.89403,2.7245 -4.08108,-4.9556 -9.47469,-9.0104 -11.9859,-9.0104 -2.5113,0 -38.96459,-19.7846 -81.00744,-43.9657 -42.04308,-24.1813 -98.09283,-55.8328 -124.55524,-70.3365 C 303.3338,924.37654 205.82391,869.01135 208.2079,866.6088 c 1.24526,-1.2548 30.69844,9.35583 65.45175,23.57937 34.75302,14.22339 155.56547,62.7273 268.47175,107.78638 112.90652,45.05905 207.44961,83.24585 210.09577,84.85985 2.64625,1.6137 4.81129,1.522 4.81129,-0.2043 0,-3.3384 -111.83956,-83.75102 -209.78817,-150.83787 -32.46782,-22.2377 -93.16405,-64.50321 -134.88026,-93.92291 -41.7163,-29.41998 -88.04371,-61.88703 -102.94971,-72.1491 -14.906,-10.26205 -27.10185,-19.94077 -27.10185,-21.50829 0,-2.55604 277.06,139.03306 448.14787,229.02208 36.54609,19.22259 67.65787,33.73019 69.13745,32.23919 1.47948,-1.4909 -8.21425,-10.96335 -21.54149,-21.04956 -13.32715,-10.08635 -25.67476,-19.95045 -27.43893,-21.9203 -4.7415,-5.29407 -90.55859,-80.29384 -108.29799,-94.6468 -42.96562,-34.76348 -231.13826,-197.15216 -263.58897,-227.47129 -18.54714,-17.32869 162.22629,94.8656 275.65993,171.08418 74.60192,50.12664 191.97449,124.83886 196.1212,124.83886 2.54185,0 -2.29516,-6.73369 -10.74924,-14.96386 C 831.31422,913.11425 785.42549,865.68381 737.79309,815.94336 690.16059,766.20271 609.33005,681.84582 558.16927,628.48351 441.43064,506.72116 430.02156,492.90001 477.98011,531.34018 c 37.91151,30.38719 69.90276,55.93195 306.77471,244.95695 65.72425,52.44811 121.18887,95.36015 123.25454,95.36015 2.06596,0 -7.4558,-13.81899 -21.15927,-30.70903 -13.70356,-16.89018 -48.6504,-61.25694 -77.65939,-98.5929 -29.00908,-37.33597 -57.53599,-73.70216 -63.39341,-80.81375 -5.85733,-7.11163 -42.47891,-53.66036 -81.38135,-103.44163 -38.90253,-49.78127 -72.24383,-91.96607 -74.09176,-93.74398 -10.0861,-9.704 -38.60006,-51.7208 -35.09938,-51.7208 2.2679,0 50.64681,45.8214 107.50846,101.82533 289.11125,284.7502 306.00481,301.15287 306.00481,297.11222 0,-5.17777 -35.80417,-63.33311 -111.11872,-180.48592 -139.14557,-216.4422 -196.80792,-307.7964 -196.80792,-311.8016 0,-3.41016 52.51842,57.17776 125.09363,144.3145 7.05744,8.47355 15.8222,18.65609 19.47698,22.62786 3.65487,3.97176 36.82942,43.58757 73.72128,88.03514 36.89177,44.44757 72.34698,86.63236 78.78952,93.74397 6.44235,7.1116 26.61784,30.92723 44.83426,52.92357 18.2167,21.99641 34.1928,38.91331 35.5028,37.59321 1.31,-1.32017 -26.4422,-58.59269 -61.6715,-127.27229 C 829.44102,344.44567 775.93872,237.09934 781.98725,240.86672 c 3.52447,2.19518 20.40218,25.07692 37.5057,50.84829 17.10391,25.7714 60.56795,89.70493 96.58673,142.07453 36.01877,52.36962 94.49862,137.40225 129.95562,188.96144 35.4568,51.55918 65.7566,93.74396 67.3327,93.74396 3.2746,0 1.2113,-5.43474 -83.4488,-219.81344 -34.4034,-87.11724 -70.6534,-180.21469 -80.55574,-206.88324 -9.90244,-26.66853 -24.26933,-62.5492 -31.92658,-79.73481 -22.21391,-49.85645 -10.41661,-41.91989 19.52086,13.13239 28.38462,52.19708 43.94825,80.55141 134.14676,244.39271 29.3632,53.3371 61.3665,111.523 71.1179,129.30203 34.7592,63.37196 50.8919,90.43946 50.9681,85.51395 0.044,-2.74864 -26.2072,-97.30072 -58.3328,-210.11579 -74.8543,-262.86461 -95.7199,-339.63984 -93.0409,-342.33991 2.332,-2.35008 13.8452,23.8552 139.1505,316.72149 85.3844,199.56164 98.4644,227.63274 92.5917,198.70852 -1.8049,-8.88951 -17.761,-97.62304 -35.458,-197.18559 -49.9283,-280.8976 -51.4082,-289.02249 -58.5492,-321.45375 -3.6966,-16.78831 -5.647,-33.771469 -4.3344,-37.740361 2.1693,-6.558482 42.6452,115.952731 137.8961,417.380021 43.2587,136.89496 47.2434,146.13157 43.2307,100.20907 -20.2153,-231.34724 -41.065,-500.30738 -40.5846,-523.539977 0.4613,-22.315793 5.5653,-6.296554 21.5862,67.750327 11.54,53.33708 31.7024,146.43456 44.8053,206.88326 13.1028,60.44869 31.0522,144.81623 39.8878,187.48345 8.8353,42.66721 16.9265,78.44567 17.9803,79.50769 1.0536,1.062 3.8843,-125.49034 6.29,-281.22744 2.4057,-155.73712 6.0076,-287.522323 8.0039,-292.856028 3.0767,-8.220414 49.6903,374.630148 63.64,522.694368 5.1811,54.99271 11.9282,49.33647 18.1125,-15.18391 2.3856,-24.89065 12.5878,-117.9881 22.6714,-206.88324 10.0837,-88.89516 22.0798,-196.53909 26.6578,-239.20875 11.2255,-104.6247695 15.9803,-72.459944 17.3832,117.59371 0.5987,81.11149 3.0244,204.20671 5.3904,273.54492 l 4.3019,126.06947 11.1124,-54.95336 c 6.1118,-30.22434 21.564,-102.95674 34.3382,-161.62753 12.7741,-58.67079 35.4152,-164.14971 50.3133,-234.39761 14.898,-70.24787 28.1794,-124.421879 29.5141,-120.38669 1.3347,4.035202 -0.8755,46.96427 -4.9117,95.39791 -4.0362,48.43367 -11.6885,140.42853 -17.0052,204.43304 -5.3166,64.00449 -12.4581,148.37406 -15.87,187.48793 -6.9986,80.22984 -7.4305,90.55983 -3.6266,86.72638 2.7236,-2.74491 111.4477,-339.88982 154.7425,-479.84462 12.9866,-41.98054 24.9643,-74.965489 26.6171,-73.299882 2.5311,2.551013 -27.2494,172.560122 -88.036,502.571912 -6.9374,37.66363 -12.5782,71.12053 -12.535,74.3487 0.074,5.58441 31.8497,-64.28712 57.6032,-126.66525 6.6061,-16.00113 26.7323,-62.54985 44.7245,-103.44163 17.9925,-40.89176 54.6621,-126.08237 81.4886,-189.31247 26.8263,-63.2301 50.0758,-113.65301 51.6656,-112.05091 1.5897,1.60211 -17.9004,75.15553 -43.3114,163.45209 -25.4109,88.29653 -50.4251,176.54029 -55.5869,196.09721 -5.1617,19.55694 -19.3899,70.0942 -31.6183,112.30505 -22.7869,78.65775 -24.5424,99.15069 -5.2773,61.60592 5.9953,-11.68407 16.7233,-31.59217 23.8399,-44.24027 7.1165,-12.6481 33.5893,-60.81737 58.8286,-107.04284 157.62,-288.67933 205.981,-372.71438 183.7195,-319.2417 -3.5222,8.46006 -39.8422,101.20616 -80.7113,206.10243 -40.8691,104.89627 -85.7107,219.58838 -99.6479,254.87135 -13.937,35.28304 -24.4389,65.05921 -23.3373,66.16934 2.1394,2.15612 21.3359,-24.54126 84.4091,-117.39 21.7394,-32.00226 51.8173,-75.64169 66.8399,-96.97652 15.0225,-21.33483 43.6836,-63.51962 63.6913,-93.74398 20.0079,-30.22434 38.0539,-56.408 40.1024,-58.1859 2.0484,-1.7779 18.6012,-25.57906 36.7841,-52.89144 39.6239,-59.51915 53.543,-71.21963 28.0431,-23.57352 -10.138,18.943 -59.6919,115.90207 -110.1196,215.46463 -50.4276,99.56256 -102.8472,202.11522 -116.4879,227.89483 -13.6404,25.77959 -21.9082,46.87197 -18.373,46.87197 3.5353,0 6.505,-2.18197 6.5992,-4.84883 0.094,-2.66685 10.9199,-16.81598 24.0568,-31.44255 13.137,-14.62659 29.678,-33.537 36.758,-42.02317 7.0799,-8.48616 43.1182,-51.7956 80.0848,-96.24318 36.9668,-44.44756 74.9795,-89.54166 84.4728,-100.20907 26.8576,-30.17904 40.9845,-46.92352 64.1584,-76.04561 21.0011,-26.39168 58.4624,-70.52035 74.3567,-87.5908 17.1292,-18.39697 6.5418,2.80199 -26.4718,53.00315 -52.0171,79.09847 -110.141,169.78025 -186.9408,291.6561 -38.0918,60.44869 -74.6199,116.89678 -81.1739,125.44016 -19.6664,25.63677 -7.6052,23.42963 18.6422,-3.4115 13.4738,-13.77869 102.1932,-100.69382 197.1539,-193.14477 94.9604,-92.45095 177.8779,-173.1839 184.2609,-179.40656 27.2316,-26.54747 -3.0018,18.69261 -42.7906,64.03027 -3.6011,4.10335 -39.7459,50.3259 -80.3215,102.71679 -40.5757,52.3909 -92.5559,118.85666 -115.5115,147.70182 -89.3955,112.33087 -111.8675,142.23026 -102.6032,136.51535 10.5658,-6.51751 230.4446,-180.70483 291.8887,-231.23329 21.1698,-17.40905 42.8404,-35.05858 48.1565,-39.22116 48.5554,-38.01861 101.152,-78.64321 109.0141,-84.20043 13.7998,-9.75417 -27.0279,34.41462 -145.0141,156.88107 -201.5473,209.20018 -251.774,262.2813 -249.9326,264.13692 1.0248,1.03299 46.2833,-27.22417 100.5745,-62.79359 54.2909,-35.56914 117.4751,-76.49984 140.4092,-90.95677 22.9339,-14.45693 83.5569,-53.89061 134.7176,-87.6305 51.1608,-33.7398 98.7931,-64.37004 105.8497,-68.06713 12.3961,-6.49446 -16.3959,22.60293 -48.5928,49.10843 -13.1941,10.86187 -150.8097,128.83937 -204.765,175.54487 -8.8427,7.6545 -49.276,42.16744 -89.8517,76.69558 -40.5758,34.52814 -78.1042,67.10493 -83.3968,72.39279 -8.0461,8.03916 47.2121,-16.08661 84.4891,-36.88802 5.8932,-3.28845 79.5069,-41.37298 163.5858,-84.63198 84.079,-43.25886 177.4087,-91.89618 207.3997,-108.08267 100.4018,-54.18834 82.0598,-40.47418 -336.1224,251.31633 -45.4984,31.7469 -78.6967,57.704 -73.7741,57.6819 4.9229,-0.019 16.1676,-3.7712 24.9884,-8.3319 8.8208,-4.5605 30.4719,-13.6785 48.1135,-20.262 17.6416,-6.5834 121.5667,-47.7346 230.9448,-91.44745 238.6458,-95.37426 234.1523,-93.6435 234.1523,-90.19097 0,1.51598 -19.4858,13.46789 -43.3022,26.55997 -23.816,13.09206 -62.0663,34.68973 -85.0003,47.99479 -22.9343,13.30505 -113.8686,64.11796 -202.0768,112.91746 -88.208,48.7997 -164.1669,92.3616 -168.7972,96.8043 -4.6304,4.4426 25.6811,-1.8454 67.3589,-13.9734 41.6778,-12.1281 90.2119,-25.9881 107.8534,-30.8002 17.6415,-4.8121 108.3244,-30.8245 201.5173,-57.8056 93.1928,-26.9811 170.3794,-48.1113 171.5256,-46.9562 1.146,1.1549 -30.3572,16.2226 -70.0072,33.4836 -39.65,17.261 -152.9215,66.7415 -251.7146,109.9567 -98.7931,43.2152 -185.0888,80.5945 -191.7683,83.0652 -40.3273,14.9169 25.2357,5.1828 275.35,-40.8813 154.6271,-28.4779 282.1816,-50.7282 283.4548,-49.4451 1.2732,1.283 -40.374,15.9904 -92.5491,32.6834 -52.1749,16.6928 -177.1377,57.7545 -277.6951,91.248 -212.1682,70.669 -230.6803,66.3392 150.7558,35.2598 130.5479,-10.637 240.2468,-19.1056 243.7751,-18.819 11.6709,0.9484 -535.9426,122.2348 -551.895,122.2348 -5.6026,0 -8.5371,2.6895 -6.5211,5.9767 2.0158,3.2872 46.2101,6.1329 98.2092,6.3239 131.2242,0.4816 480.8496,8.7427 473.0372,11.1769 -3.5284,1.0994 -95.9063,12.3283 -205.2844,24.9531 -109.3781,12.6248 -233.5108,27.1669 -275.8508,32.316 -42.3397,5.1488 -82.7551,9.7923 -89.8118,10.3189 -21.0092,1.5678 42.3681,10.6391 198.8692,28.4645 297.0623,33.8351 364.4567,41.9598 366.6847,44.2051 3.7152,3.7441 -277.496,10.8227 -429.9483,10.8227 -81.5312,0 -138.7994,2.4034 -135.2847,5.6777 3.3519,3.1226 95.5853,25.0843 204.9634,48.8038 335.7717,72.8144 355.7149,77.3029 353.4786,79.5567 -1.1922,1.2017 -107.1941,-6.5258 -235.5594,-17.1719 -298.6971,-24.7728 -353.4289,-28.1209 -332.8262,-20.3592 14.4015,5.4256 79.8614,26.6602 441.2331,143.1327 57.4414,18.5135 103.5238,34.5831 102.4055,35.7101 -2.0073,2.0228 -35.2921,-3.8743 -384.4522,-68.1149 -97.6844,-17.9725 -181.4018,-32.6362 -186.0389,-32.5863 -8.2664,0.09 167.2056,80.0207 246.4469,112.2622 22.1203,9.0003 73.4169,31.1833 113.9925,49.2961 40.5758,18.1124 94.853,41.8526 120.6161,52.7557 25.763,10.9032 45.6121,21.0634 44.1093,22.578 -2.0438,2.0597 -499.1337,-139.0226 -556.0485,-157.8154 -5.2924,-1.7476 -3.8242,1.2177 3.2628,6.5892 11.6598,8.8376 38.5315,24.1224 195.6063,111.2623 147.7897,81.9887 307.9264,173.1524 307.9264,175.2985 0,1.3583 -13.7122,-3.0151 -30.4719,-9.7185 -16.7594,-6.7035 -122.8498,-48.8286 -235.7561,-93.6115 -112.9064,-44.7828 -219.5095,-87.2271 -236.8958,-94.3207 -17.3863,-7.0936 -32.7129,-11.7873 -34.0595,-10.4305 -1.3463,1.3569 8.5488,10.3031 21.989,19.8803 45.0373,32.0932 293.0423,204.7694 369.25,257.0948 41.4578,28.4655 75.378,52.7739 75.378,54.0184 0,4.2641 -33.8167,-10.6956 -73.0372,-32.3099 -21.5752,-11.8901 -108.5111,-57.3695 -193.191,-101.0651 -84.6798,-43.6957 -175.4281,-90.5664 -201.663,-104.1572 -26.2348,-13.5906 -48.42,-23.9846 -49.3001,-23.0975 -1.6928,1.7061 114.4596,102.7827 313.4319,272.7503 66.1129,56.4754 119.1285,103.7677 117.8123,105.0941 -1.316,1.3264 -43.8611,-24.9986 -94.5445,-58.4995 -159.5445,-105.4567 -385.7217,-250.5459 -387.6083,-248.6446 -1.7598,1.7735 28.5923,33.8797 243.1123,257.1633 141.6606,147.4477 156.8308,164.1451 142.1562,156.4673 -7.0567,-3.6923 -18.6039,-12.1247 -25.6606,-18.7388 -7.0566,-6.6142 -87.8874,-71.475 -179.6236,-144.1352 -91.7365,-72.6603 -168.2369,-133.6729 -170.0011,-135.5838 -8.9527,-9.6974 -63.6641,-51.9624 -67.2643,-51.9624 -2.2887,0 5.6382,12.3643 17.6154,27.4765 58.3523,73.6264 248.6446,316.1262 272.6863,347.4992 14.987,19.5569 36.1677,46.4679 47.0685,59.8023 37.2619,45.5802 11.0107,24.2593 -79.6013,-64.651 -49.828,-48.8924 -130.9846,-128.1707 -180.3481,-176.1741 -49.3636,-48.0033 -97.1025,-94.5521 -106.0867,-103.4417 -8.984,-8.8894 -21.9406,-20.5266 -28.7925,-25.8602 -14.8471,-11.5575 -15.4616,-12.7185 30.7489,58.0918 30.9732,47.4613 56.049,86.6713 97.2237,152.0238 11.2015,17.7792 41.9204,65.7824 68.2641,106.6743 94.7226,147.0319 101.2724,157.743 98.297,160.7416 -1.6597,1.6725 -3.9258,1.8286 -5.0357,0.3472 -5.7632,-7.6925 -178.0759,-213.6553 -200.0586,-239.1271 -14.1132,-16.3533 -31.4341,-36.7749 -38.4908,-45.3814 -7.0565,-8.6064 -35.8403,-43.2712 -63.9637,-77.0325 -28.1235,-33.7616 -51.9396,-62.5968 -52.9248,-64.0783 -0.9853,-1.4814 -3.2591,-1.2146 -5.0529,0.5929 -1.7938,1.8077 7.1413,23.3851 19.8561,47.9493 12.7147,24.5647 62.2366,121.7592 110.0485,215.988 47.812,94.2288 95.2771,186.9755 105.4779,206.1037 10.2009,19.1282 17.4018,35.9326 16.0021,37.3431 -2.3751,2.3938 -44.4872,-57.2372 -144.5295,-204.6561 -22.9242,-33.7804 -53.4456,-77.9888 -67.8257,-98.2411 -14.3799,-20.2525 -46.1455,-66.0739 -70.5906,-101.8254 -41.0602,-60.0522 -55.0854,-77.2046 -46.5434,-56.9213 1.8718,4.4446 25.5332,64.8126 52.5804,134.1507 27.0475,69.3383 54.4733,139.1614 60.9466,155.1624 6.4731,16.0011 24.5314,62.55 40.1297,103.4418 15.5982,40.8916 33.1385,85.6137 38.9786,99.3823 15.3561,36.2034 12.925,43.8374 -4.381,13.7568 -19.4082,-33.735 -159.5445,-287.2907 -228.6823,-413.7664 -24.6355,-45.066 -38.5844,-66.4441 -38.5844,-59.1342 0,4.9013 65.7781,238.7525 112.1055,398.5522 36.1735,124.776 42.7307,149.9727 39.7976,152.9286 -1.5507,1.5629 -12.9821,-21.2969 -25.4031,-50.7994 -21.6487,-51.4199 -150.941,-352.4039 -187.6599,-436.8603 -9.7011,-22.3129 -18.5442,-39.656 -19.6513,-38.5402 -1.1072,1.1159 19.496,119.7426 45.785,263.6151 56.6359,309.9517 57.4016,314.5589 51.3422,308.9161 -2.5934,-2.4148 -11.381,-27.1439 -19.528,-54.9533 -8.1473,-27.8094 -41.5101,-133.4775 -74.1399,-234.818 -32.6297,-101.3404 -63.9808,-200.7852 -69.6694,-220.9882 -13.9825,-49.661 -22.2639,-55.2518 -17.4124,-11.7553 2.1813,19.5569 6.9625,74.8334 10.6245,122.8368 3.6621,48.0034 10.7276,135.2823 15.701,193.9531 10.9518,129.1991 16.896,231.8419 12.9172,223.046 -3.2909,-7.2749 -70.1307,-315.8937 -101.3624,-468.0189 l -20.4292,-99.5079 -4.0168,96.2755 c -2.2094,52.9516 -5.0156,184.5091 -6.2358,292.3501 -1.2201,107.8413 -3.9983,197.1835 -6.1736,198.5383 -2.1751,1.3549 -8.7847,-43.2394 -14.6879,-99.0984 -5.9031,-55.8588 -16.4115,-149.5649 -23.3522,-208.2357 -6.9404,-58.6708 -15.9192,-138.6765 -19.9528,-177.7903 -7.0197,-68.0706 -17.7996,-111.3251 -18.529,-74.3486 -0.1752,8.8895 -10.4006,103.4415 -22.7226,210.1158 -12.322,106.6741 -25.6533,225.9552 -29.6251,265.069 -10.9544,107.8734 -17.8752,102.9312 -18.1069,-12.9302 z m 89.6286,-691.9042 c 0,-5.4098 7.4122,-40.2399 16.4713,-77.3997 l 16.4715,-67.564 -18.0753,-48.5996 c -9.9412,-26.7296 -19.5871,-48.6309 -21.4352,-48.6695 -1.8481,-0.039 -11.4119,21.7503 -21.2532,48.4193 l -17.8929,48.4898 17.6345,77.5798 c 9.6989,42.6691 19.9846,77.58 22.8569,77.58 2.8724,0 5.2224,-4.4262 5.2224,-9.8361 z m -173.2086,-15.0704 c 0,-3.0312 15.8704,-34.6794 35.2675,-70.3295 l 35.2674,-64.8182 -4.1512,-49.4911 c -2.2832,-27.22 -6.1588,-50.7414 -8.6127,-52.2697 -2.4538,-1.5282 -17.4535,15.4222 -33.333,37.6678 l -28.8717,40.4465 -3.5205,82.1527 c -1.9984,46.6332 -1.0398,82.1526 2.2169,82.1526 3.1555,0 5.7373,-2.4799 5.7373,-5.5111 z m 322.745,-178.0983 c -27.1765,-40.7721 -45.8245,-62.6099 -48.8791,-57.2401 -1.5249,2.6805 -4.7637,25.9661 -7.1974,51.7462 l -4.4251,46.8731 37.2756,71.2775 37.2755,71.2776 1.8089,-78.714 c 1.7603,-76.5906 1.3326,-79.4292 -15.8584,-105.2203 z m -381.1774,-7.111 c 2.978,-7.1117 7.5005,-32.8593 10.0499,-57.2169 l 4.6354,-44.2868 -38.7592,31.2566 c -40.694,32.8167 -52.5751,55.0915 -74.5735,139.8093 -4.8385,18.6337 -10.7543,39.698 -13.1461,46.8096 -5.3087,15.7844 104.1788,-98.1871 111.7935,-116.3718 z m 540.2361,43.3844 -24.1323,-79.2413 -39.5892,-32.1498 c -44.7157,-36.3131 -44.8833,-36.1418 -33.4488,34.2158 5.6589,34.8204 9.8255,41.4292 62.0873,98.4804 30.8118,33.6353 56.74,60.4308 57.6183,59.5455 0.8785,-0.885 -9.2626,-37.2679 -22.5353,-80.8506 z m -716.9111,-71.41 c 50.5155,-29.7318 69.5541,-49.9337 87.8287,-93.1952 10.1389,-24.0015 16.2118,-43.6393 13.495,-43.6393 -4.8995,0 -47.3206,18.6646 -77.6822,34.179 -13.8737,7.0892 -96.1703,128.6477 -96.3806,142.3615 -0.044,2.8683 12.189,-2.4699 27.1844,-11.8628 14.9953,-9.3929 35.4949,-21.9223 45.5547,-27.8432 z m 837.2024,-29.4242 c -37.7882,-62.9697 -43.1172,-68.9266 -72.8464,-81.4312 -17.6415,-7.4202 -37.0884,-16.301 -43.2151,-19.7352 -21.9804,-12.3205 -23.1041,-5.6039 -6.1113,36.5287 12.9016,31.9894 23.72,47.5899 42.9113,61.8799 38.7995,28.8904 114.6108,76.1612 117.4904,73.259 1.3981,-1.4087 -15.805,-33.1344 -38.2289,-70.5012 z m -419.2636,-75.0847 c 5.8595,-17.7792 11.7434,-32.3256 13.0754,-32.3256 1.3318,0 10.0346,13.0919 19.3394,29.0929 9.3047,16.0011 19.1584,29.093 21.8969,29.093 2.7385,0 6.8939,-14.5466 9.2341,-32.3254 2.3403,-17.779 6.199,-32.3256 8.575,-32.3256 2.3758,0 15.2671,10.7731 28.6471,23.9399 l 24.3273,23.94 v -37.6136 -37.6137 l 16.0377,10.4411 c 8.821,5.7426 22.8531,14.8744 31.1829,20.2929 l 15.1449,9.8516 -6.4085,-32.6639 c -3.5248,-17.9651 -4.9748,-34.1086 -3.2226,-35.8744 1.7521,-1.7659 16.5849,2.5774 32.9619,9.6521 16.3768,7.0747 29.776,11.4183 29.776,9.6526 0,-1.7658 -4.3301,-13.655 -9.6227,-26.4203 -15.4371,-37.2342 -13.6969,-40.1237 20.3095,-33.721 16.4628,3.0994 30.9285,4.6314 32.1461,3.4044 1.2176,-1.227 -5.035,-12.9957 -13.8944,-26.1527 -23.1261,-34.3435 -21.2604,-38.2049 15.9675,-33.045 17.6416,2.4453 32.0756,2.1136 32.0756,-0.737 0,-2.8506 -10.5943,-16.117 -23.5431,-29.4809 -25.5624,-26.3822 -25.8682,-25.9194 23.5431,-35.6138 l 28.8681,-5.6637 -30.4718,-18.2036 c -16.7597,-10.0122 -30.4719,-19.5455 -30.4719,-21.1854 0,-1.6401 12.9905,-8.7729 28.8681,-15.851 15.8774,-7.0782 28.8681,-14.0517 28.8681,-15.4967 0,-1.4452 -12.9907,-8.4186 -28.8681,-15.4968 -15.8776,-7.078 -28.8681,-14.3647 -28.8681,-16.1926 0,-1.828 13.7122,-11.4287 30.4719,-21.335 l 30.4718,-18.0113 -28.8681,-5.5142 c -49.3589,-9.4285 -49.1193,-9.0677 -23.5431,-35.4644 12.9488,-13.3638 23.5431,-26.3917 23.5431,-28.9508 0,-2.5588 -11.4367,-2.8095 -25.4148,-0.5571 -13.9781,2.2526 -30.2881,2.211 -36.2443,-0.092 -9.8665,-3.8156 -9.6746,-5.4662 2.1602,-18.5656 7.1444,-7.9079 16.3388,-20.9237 20.4322,-28.9244 8.5548,-16.7205 5.2712,-17.5901 -32.7824,-8.681 -13.0546,3.0564 -25.1999,4.0814 -26.9894,2.2779 -1.7897,-1.8035 2.5975,-14.8381 9.7491,-28.9657 7.1516,-14.1273 11.3891,-27.3126 9.4167,-29.3004 -1.9723,-1.9877 -15.6765,1.1722 -30.4537,7.0221 -14.7773,5.8498 -28.2843,9.2085 -30.0157,7.4636 -1.7315,-1.745 -0.1765,-16.26 3.4556,-32.2559 7.6641,-33.7532 4.0218,-35.3685 -28.8437,-12.7914 l -23.7163,16.2921 -3.2074,-36.4791 -3.2077,-36.479 -22.453,23.3506 c -12.3491,12.8428 -24.5185,23.3817 -27.0433,23.4195 -2.5246,0.039 -6.5051,-14.4775 -8.8454,-32.2566 -2.3402,-17.7791 -6.1943,-32.3255 -8.5644,-32.3255 -2.3702,0 -12.7309,13.4271 -23.0241,29.838 l -18.7147,29.8383 -10.9569,-24.9895 c -6.0263,-13.7439 -11.1709,-28.6258 -11.4328,-33.0705 -1.0065,-17.1004 -12.0314,-6.8451 -22.5876,21.0115 -6.0637,16.0011 -12.9915,29.0929 -15.395,29.0929 -2.4035,0 -11.5069,-11.6372 -20.2293,-25.8603 -8.7223,-14.2233 -17.6925,-25.8604 -19.9332,-25.8604 -2.2409,0 -5.989,14.5464 -8.3292,32.3255 -2.3403,17.7791 -6.1991,32.3255 -8.575,32.3255 -2.376,0 -15.2672,-10.773 -28.6472,-23.94 l -24.3271,-23.9394 v 36.87 c 0,20.2786 -1.7498,36.8702 -3.8884,36.8702 -2.1383,0 -15.2622,-9.0785 -29.1638,-20.1746 -13.9016,-11.0961 -26.6788,-18.7607 -28.3937,-17.0326 -1.7149,1.7282 0.4355,16.532 4.7789,32.8971 4.343,16.3652 6.2879,31.3761 4.3217,33.3578 -1.9664,1.9815 -16.9744,-2.1856 -33.3511,-9.2602 -33.2448,-14.3613 -35.4451,-11.0757 -16.9936,25.374 11.9044,23.5161 9.0145,38.7678 -5.6188,29.6535 -9.0916,-5.6627 -52.0697,-11.3569 -52.0697,-6.8989 0,2.2344 7.217,13.5984 16.0379,25.2532 23.0426,30.4457 20.7401,35.232 -16.0379,33.3384 -17.6417,-0.9084 -32.0756,-0.045 -32.0756,1.9151 0,1.9616 10.5944,14.5007 23.543,27.8647 25.3114,26.1229 24.876,26.9186 -18.7317,34.2222 -25.5594,4.281 -31.3874,13.0373 -12.8303,19.2774 6.1747,2.0762 18.4082,9.3524 27.1856,16.1692 l 15.9594,12.3943 -30.3934,13.1295 c -16.7163,7.2213 -30.3931,14.791 -30.3931,16.8216 0,2.0305 12.9905,9.3039 28.8681,16.1629 15.8774,6.8587 28.868,13.7522 28.868,15.3185 0,1.5664 -13.7124,11.0396 -30.4719,21.0517 l -30.4717,18.2037 28.868,5.6636 c 49.4113,9.6945 49.1054,9.2317 23.543,35.6139 -12.9486,13.3639 -23.543,26.6303 -23.543,29.4809 0,2.8506 14.4339,3.1822 32.0756,0.7369 36.0221,-4.9927 39.6042,-0.032 20.2972,28.0951 -26.6145,38.7766 -26.976,38.53 33.9039,23.1311 l 17.207,-4.3524 -10.741,25.0514 c -21.2128,49.476 -21.1805,49.5609 13.2395,34.6919 16.8033,-7.2588 31.8636,-11.8756 33.4672,-10.2595 1.6037,1.6161 -0.044,16.9262 -3.6623,34.0221 -3.6181,17.0959 -5.7997,31.8682 -4.8482,32.8272 0.9516,0.959 13.7133,-7.0046 28.3595,-17.6968 14.6462,-10.6923 28.0977,-19.4405 29.8924,-19.4405 1.7948,0 3.2633,16.5916 3.2633,36.8701 v 36.8703 l 24.3271,-23.9401 c 13.38,-13.1668 26.2712,-23.94 28.6472,-23.94 2.3759,0 6.2347,14.5467 8.575,32.3257 2.3402,17.7789 6.0481,32.3203 8.2397,32.3139 2.1917,0 12.1886,-13.0982 22.2156,-29.0931 10.0268,-15.9946 19.177,-29.0813 20.3336,-29.0813 1.1565,0 6.8973,14.5464 12.7569,32.3256 5.8594,17.779 13.0764,32.3255 16.0377,32.3255 2.9613,0 10.1782,-14.5465 16.0379,-32.3255 z m -560.86336,-2.7369 c 15.62396,-5.0612 48.61486,-15.2671 73.31306,-22.68 41.1978,-12.3651 47.4899,-16.6977 76.197,-52.4684 17.2102,-21.4449 30.1039,-40.187 28.6527,-41.6496 -1.4513,-1.4623 -23.9987,0.5361 -50.1058,4.441 -42.0677,6.2925 -50.7259,10.1166 -76.1174,33.6203 -105.09182,97.2783 -103.98102,95.5946 -51.93956,78.7367 z m 1106.00046,-15.1119 c -101.0214,-94.6205 -94.9856,-90.2754 -131.7705,-94.8605 -19.1805,-2.3908 -43.1382,-5.9509 -53.2394,-7.9113 -18.0149,-3.4962 -17.7227,-2.7558 15.2936,38.7662 31.6016,39.7425 36.4507,43.1645 79.3096,55.9687 25.1074,7.5011 57.1973,17.6187 71.3105,22.4841 42.0408,14.4924 46.4401,11.1642 19.0962,-14.4472 z M 1075.5137,1646.941 c 38.0637,-26.2534 49.9465,-37.6368 44.7524,-42.8712 -2.1792,-2.1964 -26.3441,-5.2992 -53.6995,-6.8951 -47.9162,-2.7954 -51.1855,-2.0462 -89.29625,20.464 -21.75763,12.851 -40.94384,23.3656 -42.63638,23.3656 -1.69224,0 -15.64066,7.4928 -30.99626,16.6507 l -27.91907,16.6508 84.32272,-2.9401 c 82.91104,-2.8908 84.84434,-3.2996 115.47234,-24.4247 z m 1060.5891,-4.3352 c -91.8274,-51.5109 -92.3151,-51.6534 -150.498,-43.9477 l -51.2529,6.7882 42.2627,30.3373 c 45.6433,32.764 50.0079,33.7376 162.8854,36.3353 l 51.3211,1.1813 z M 1080.0805,1511.5257 c 17.1342,-7.6815 28.6816,-16.1272 25.6606,-18.7682 -17.8302,-15.5879 -77.4724,-33.9271 -101.3244,-31.156 -42.90814,4.985 -154.72779,32.7364 -145.03096,35.9938 4.95049,1.6631 36.63193,9.8045 70.40301,18.0921 70.10324,17.2036 104.77515,16.2435 150.29175,-4.1617 z m 1056.7718,2.9593 c 36.6424,-9.1368 67.5949,-17.5927 68.7838,-18.7907 1.1887,-1.1979 -31.8811,-10.1562 -73.4888,-19.9073 -81.721,-19.1518 -92.8553,-18.5487 -155.814,8.4397 l -28.4487,12.1949 44.4866,16.9797 c 55.83,21.309 63.1502,21.3639 144.4811,1.0837 z m -1035.0096,-124.4826 27.2551,-4.3695 -36.8777,-28.8384 c -41.146,-32.1762 -63.9798,-37.591 -161.97286,-38.4099 l -54.5286,-0.4558 60.94379,32.8623 c 33.51907,18.0743 63.68617,35.4898 67.03807,38.701 6.9757,6.6827 57.987,6.9481 98.1422,0.5099 z m 1015.1318,-31.8464 70.2103,-37.1742 -27.0499,-2.1654 c -14.8775,-1.1908 -53.4802,-0.2127 -85.7837,2.1739 -57.3976,4.2404 -59.6268,5.0249 -98.0038,34.4909 l -39.27,30.1517 24.2298,3.9312 c 66.2503,10.7494 82.0757,7.5566 155.6673,-31.4081 z m -953.3944,-80.8137 c -24.2035,-40.8834 -56.3305,-74.6612 -77.7115,-81.7041 -59.8869,-19.7273 -131.58867,-40.0309 -133.7339,-37.869 -1.29572,1.3058 23.97604,26.9256 56.1596,56.9329 54.5677,50.8779 61.1583,55.0508 97.6877,61.8509 55.0486,10.2475 63.2641,10.3601 57.5981,0.7893 z m 802.6645,-2.3407 c 27.4928,-3.8171 37.4865,-9.686 70.5664,-41.4418 21.1957,-20.347 48.6415,-46.4362 60.9907,-57.9758 l 22.4528,-20.981 -19.2453,4.3527 c -10.585,2.3941 -47.1979,13.1432 -81.3619,23.8871 -54.3614,17.0953 -64.7521,22.7927 -83.2251,45.6328 -44.6018,55.1463 -46.2675,59.7176 -19.8481,54.4741 9.7029,-1.9257 32.0546,-5.5023 49.6705,-7.9481 z M 1220.203,1152.1723 c -11.6481,-29.5874 -23.6548,-47.9908 -39.0152,-59.8022 -29.9768,-23.0506 -118.6505,-78.1891 -121.3569,-75.4615 -2.2384,2.2557 48.5222,89.3181 71.2239,122.1602 11.3261,16.3853 78.389,54.069 98.5278,55.3644 4.6198,0.2975 1.0592,-15.7457 -9.3796,-42.2609 z m 663.4667,22.8191 c 43.9711,-19.8485 44.2861,-20.1764 86.9878,-90.5114 23.5713,-38.8248 41.3877,-70.5906 39.592,-70.5906 -7.416,0 -129.3644,78.5184 -138.1063,88.9218 -13.0788,15.565 -44.6632,92.101 -38.0074,92.101 2.9716,0 25.262,-8.9643 49.5339,-19.9208 z m -565.6593,-88.3695 c -2.5196,-24.0018 -6.358,-48.4088 -8.5295,-54.2379 -4.4254,-11.879 -110.5463,-129.80222 -113.8315,-126.4914 -1.1551,1.16421 9.3222,38.30416 23.2831,82.53343 25.3095,80.18217 25.4916,80.50507 62.4069,110.71787 20.3629,16.6658 37.9749,30.4849 39.1378,30.7093 1.1629,0.2243 0.051,-19.2296 -2.4668,-43.2313 z m 470.77,8.1095 c 33.368,-25.5598 33.9899,-26.6807 58.967,-106.2772 13.8838,-44.24474 24.3121,-81.3833 23.1739,-82.53024 -3.4954,-3.5227 -109.6209,114.97494 -114.4229,127.76234 -9.3042,24.7758 -15.9819,96.1338 -8.5542,91.405 3.9119,-2.4903 22.2883,-16.1522 40.8362,-30.3599 z m -356.0458,-63.7568 c 3.8792,-46.24655 3.1803,-49.6158 -19.1544,-92.34373 -12.7492,-24.39012 -30.0065,-57.41443 -38.3497,-73.38724 l -15.1692,-29.04139 v 81.47625 c 0,77.35484 0.8552,82.74851 16.9074,106.62271 25.2389,37.5377 43.5636,59.2908 47.8882,56.8474 2.1185,-1.1967 5.6636,-23.7751 7.8777,-50.174 z m 249.7192,2.2541 24.0247,-35.61396 -0.123,-80.75776 -0.1227,-80.75764 -32.0855,60.91725 c -17.6471,33.50468 -35.1698,64.6626 -38.9394,69.2401 -6.3922,7.76224 -2.2027,101.33041 5.1022,113.94961 3.7475,6.4742 13.1772,-4.037 42.1442,-46.9776 z m -127.8914,-9.9192 18.085,-48.62553 -17.4306,-75.75749 c -9.5868,-41.66648 -19.2043,-77.83008 -21.3725,-80.36343 -2.168,-2.53338 -12.0357,31.62515 -21.9281,75.90788 l -17.9861,80.51427 17.9136,48.5451 c 9.8523,26.6998 19.4254,48.5135 21.2735,48.4749 1.8481,-0.039 11.4984,-21.9515 21.4452,-48.6957 z" />
  </g>
</svg>
