<svg
   xmlns="http://www.w3.org/2000/svg"
   width='548'
   height="548"
   viewBox="0 0 210 210">
  <g>
    <path style="fill:#0571b8;stroke-width:0.381091" d="m 111.03538,209.35971 c -0.16606,-0.62498 -0.31067,-2.10499 -0.57844,-5.91912 -0.13711,-1.95333 -0.55956,-5.32722 -0.93874,-7.49756 -0.37919,-2.17035 -0.78586,-5.91094 -0.90373,-8.31241 -0.11785,-2.40146 -0.47766,-5.42023 -0.79955,-6.70835 -0.32189,-1.28813 -0.80877,-3.45062 -1.08192,-4.80549 -0.67163,-3.33113 -0.93791,-3.80487 -1.77135,-3.15144 -0.52387,0.41071 -0.75076,1.65344 -1.17148,6.41631 -0.28698,3.24881 -0.75749,6.97236 -1.04557,8.27457 -0.28807,1.30221 -0.63153,4.23219 -0.76325,6.51105 -0.29567,5.11552 -0.51547,6.39862 -1.06268,6.20335 -0.30645,-0.10937 -0.47832,-3.74115 -0.61054,-12.90208 l -0.18402,-12.74991 -1.003121,-0.80267 c -0.94714,-0.7579 -1.041745,-0.76522 -1.69493,-0.13144 -0.507299,0.49224 -0.753963,1.45992 -0.92492,3.62838 -0.131204,1.66426 -0.539683,3.60135 -0.934298,4.43071 -0.385634,0.81047 -0.81315,2.71623 -0.950034,4.23501 -0.136883,1.5188 -0.564797,3.58417 -0.950894,4.58972 -0.386107,1.00555 -0.811203,2.87009 -0.944666,4.14339 -0.133475,1.27331 -0.401789,2.64659 -0.596257,3.05171 -0.324748,0.67654 -0.40182,0.68488 -0.944966,0.10248 -0.50245,-0.53873 -0.523605,-0.83502 -0.140698,-1.97035 0.253455,-0.75152 0.543237,-4.42276 0.662197,-8.38933 0.126436,-4.21576 0.409119,-7.688 0.702698,-8.63147 0.766246,-2.46245 0.990054,-6.34424 0.39626,-6.87263 -0.696454,-0.6197 -1.658901,-0.12003 -1.920391,0.99702 -0.121413,0.51867 -0.438368,0.943 -0.704357,0.943 -0.51051,0 -1.051566,1.52906 -1.461418,4.13007 -0.135643,0.86083 -0.540683,2.01505 -0.900097,2.56497 -0.359415,0.5499 -0.768286,1.6746 -0.908611,2.49931 -0.140325,0.82472 -0.660122,2.31616 -1.155105,3.31431 -0.494985,0.99813 -0.899968,2.34453 -0.899968,2.99194 0,0.64741 -0.313377,1.73081 -0.696377,2.40753 -0.383012,0.67673 -0.815491,1.85192 -0.961059,2.61153 -0.145571,0.75962 -0.520347,1.69189 -0.832814,2.0717 -0.312481,0.37981 -0.457442,0.69056 -0.322141,0.69056 0.135302,0 -0.0046,0.64319 -0.310994,1.42934 -0.30635,0.78612 -0.557,1.76276 -0.557,2.17034 0,0.40755 -0.188684,0.74102 -0.419305,0.74102 -0.567931,0 -0.1601,-3.61581 0.543229,-4.81625 0.291804,-0.49806 0.730742,-2.68133 0.975413,-4.85166 0.244663,-2.17036 0.675764,-4.54155 0.957987,-5.26932 0.282228,-0.72774 0.696158,-2.94744 0.919864,-4.93259 0.223703,-1.98518 0.721865,-4.35435 1.107024,-5.26486 1.247664,-2.94939 0.700245,-6.86352 -0.869596,-6.21763 -0.346695,0.14264 -0.802678,0.94552 -1.013299,1.78415 -0.21062,0.83865 -0.585323,1.66387 -0.832681,1.83382 -0.247359,0.16997 -0.671301,0.84175 -0.942091,1.49285 -1.138566,2.73764 -2.38769,5.58986 -2.85151,6.51105 -0.273184,0.54258 -0.682001,1.43046 -0.908471,1.97305 -0.226475,0.54259 -0.64052,1.43044 -0.920092,1.97303 -0.279577,0.54259 -0.69061,1.43047 -0.913401,1.97305 -0.222796,0.54259 -0.807549,1.83009 -1.299461,2.86114 -0.491914,1.03103 -0.894384,2.12722 -0.894384,2.43601 0,0.30879 -0.414035,1.08902 -0.920096,1.73386 -0.506044,0.64482 -0.920092,1.53584 -0.920092,1.98001 0,0.44421 -0.165615,0.91736 -0.368035,1.05151 -0.616396,0.40845 -0.413535,-1.56516 0.351472,-3.41942 0.395731,-0.95921 0.837077,-2.53556 0.980753,-3.503 0.143678,-0.96743 0.647984,-2.54011 1.120671,-3.49482 0.472695,-0.95475 0.863078,-2.19776 0.867527,-2.76227 0.0046,-0.56452 0.357357,-1.8255 0.784254,-2.80215 0.426894,-0.97667 0.91346,-2.64174 1.081234,-3.70017 0.167789,-1.05845 0.552258,-2.21732 0.854387,-2.57528 0.541944,-0.64205 0.84696,-2.15061 1.111453,-5.497 0.132244,-1.67307 0.114127,-1.70461 -0.840018,-1.46295 -1.123439,0.28451 -2.263311,1.57053 -2.263311,2.55351 0,0.37088 -0.414046,1.06033 -0.920092,1.53212 -0.506063,0.47177 -0.920107,1.11615 -0.920107,1.43195 0,0.31581 -0.414035,1.05321 -0.920096,1.63867 -0.506044,0.58546 -0.920092,1.28097 -0.920092,1.54555 0,0.2646 -0.372638,0.98891 -0.82808,1.60956 -1.015649,1.3841 -3.220343,5.2767 -3.220343,5.68579 0,0.16418 -0.258,0.52807 -0.573317,0.80866 -0.315331,0.28059 -0.81563,1.057 -1.111781,1.72539 -0.858476,1.93746 -2.280432,4.31772 -2.842759,4.7586 -0.284659,0.22317 -0.635639,0.80462 -0.779945,1.29211 -0.144311,0.4875 -0.426604,0.88635 -0.627332,0.88635 -0.200727,0 -0.299807,-0.13316 -0.22019,-0.29594 0.546069,-1.1163 1.7099,-4.0863 2.075167,-5.29565 0.240582,-0.79653 0.677384,-1.66175 0.970662,-1.92271 0.293273,-0.26097 0.533228,-0.8719 0.533228,-1.35765 0,-0.48571 0.414045,-1.53729 0.920093,-2.33684 0.506058,-0.79955 0.920092,-1.74101 0.920092,-2.09209 0,-0.35111 0.399729,-1.36968 0.888263,-2.26351 0.488551,-0.89384 1.004268,-2.28813 1.146052,-3.09843 0.141784,-0.81032 0.494158,-1.61514 0.783043,-1.78849 0.288894,-0.17336 0.75075,-1.2317 1.026354,-2.35188 0.275603,-1.12019 0.765648,-2.32034 1.088979,-2.66703 0.709239,-0.76044 0.753103,-1.7593 0.118131,-2.69035 -0.599498,-0.87905 -1.671515,-0.47739 -1.954697,0.73237 -0.11541,0.49315 -0.512122,1.05066 -0.881537,1.23897 -0.830324,0.42324 -3.318692,3.60071 -3.318692,4.23773 0,0.25658 -0.666976,1.17204 -1.482175,2.03436 -0.815186,0.86232 -1.79927,2.18934 -2.186834,2.94896 -0.387579,0.75964 -1.252563,2.01548 -1.92219,2.79081 -0.669641,0.7753 -1.842721,2.37348 -2.606863,3.55149 -0.76414,1.17798 -1.986995,2.8521 -2.717469,3.72024 l -1.328139,1.57844 0.250574,-1.18384 c 0.137822,-0.65109 0.550726,-1.63118 0.917556,-2.17797 0.366834,-0.54678 0.795725,-1.43466 0.953095,-1.97304 0.157365,-0.53841 0.677501,-1.48085 1.155863,-2.09435 0.478351,-0.61349 0.869736,-1.43524 0.869736,-1.82607 0,-0.39084 0.260522,-0.94246 0.57895,-1.22581 0.318437,-0.28336 0.939496,-1.20613 1.38015,-2.05061 0.440645,-0.84448 1.254067,-2.36575 1.807589,-3.38058 0.553518,-1.01483 1.317576,-2.55794 1.697898,-3.42915 0.380325,-0.87123 0.962545,-1.82524 1.293831,-2.12003 0.331297,-0.2948 0.602347,-0.83545 0.602347,-1.20145 0,-0.36603 0.243164,-1.01019 0.540353,-1.43148 0.618347,-0.87655 0.750507,-2.93633 0.188413,-2.93633 -0.560197,0 -3.305037,1.93012 -3.305037,2.32402 0,0.1876 -1.283526,1.75424 -2.852293,3.48138 -1.568767,1.72717 -4.50847,5.06034 -6.53268,7.40706 -5.346831,6.19873 -8.648904,9.74795 -8.648904,9.29614 0,-0.4178 1.855945,-3.48948 3.705223,-6.13234 0.60746,-0.86814 1.512253,-2.19993 2.010647,-2.95957 0.498384,-0.75962 1.321398,-2.00264 1.828917,-2.76227 0.507517,-0.7596 1.338276,-2.04702 1.846133,-2.86091 0.507871,-0.81387 1.075766,-1.47979 1.26201,-1.47979 0.186244,0 0.453363,-0.39952 0.593617,-0.88784 0.140257,-0.48833 0.952908,-1.77575 1.805896,-2.86094 2.037749,-2.59242 3.682194,-6.07005 3.002535,-6.34969 -0.498701,-0.20519 -3.053607,1.20268 -3.725701,2.05302 -0.202422,0.25611 -1.922012,1.83956 -3.821318,3.5188 -1.899317,1.67925 -3.736432,3.3403 -4.082494,3.69126 -0.346063,0.35095 -1.923953,1.88111 -3.50641,3.40036 -1.582456,1.51923 -3.223295,3.1248 -3.646312,3.56789 -0.423008,0.44308 -1.638596,1.47927 -2.701305,2.30259 -1.369896,1.06135 -1.932211,1.32149 -1.932211,0.89385 0,-0.33173 0.291409,-0.83517 0.647552,-1.11877 0.356154,-0.28361 2.043905,-2.29138 3.750554,-4.46172 1.706651,-2.17036 3.526876,-4.39535 4.044941,-4.94444 0.951854,-1.00888 3.577781,-4.15889 5.582369,-6.69653 1.182638,-1.49711 1.571943,-1.95805 2.166286,-2.56496 1.179507,-1.2044 2.210221,-2.67365 2.210221,-3.1506 0,-1.01944 -1.424552,-1.08871 -2.857878,-0.13894 -2.114025,1.40081 -4.821288,3.38246 -5.405279,3.9565 -0.289192,0.28428 -1.119525,0.96081 -1.845189,1.50338 -0.725676,0.5426 -1.770674,1.38586 -2.32223,1.87392 -0.551556,0.48807 -1.142617,0.88761 -1.313464,0.88787 -0.170861,2.6e-4 -1.247375,0.75683 -2.392259,1.68122 -2.089975,1.68754 -3.701459,2.9121 -4.798592,3.64649 -0.324241,0.21704 -1.081408,0.81436 -1.682585,1.32741 -0.784408,0.66939 -1.137726,0.78916 -1.251218,0.42408 -0.160487,-0.51624 4.765976,-5.81007 8.423599,-9.05176 1.101954,-0.97667 3.874232,-3.77383 6.16059,-6.21593 3.662211,-3.91168 4.110193,-4.53403 3.76351,-5.22857 -0.503303,-1.00834 -1.540335,-1.00798 -2.391827,7.9e-4 -0.366387,0.43407 -0.951434,0.78923 -1.300111,0.78923 -0.348692,0 -0.8519,0.28152 -1.118253,0.62562 -0.266351,0.34411 -1.114711,0.89611 -1.885255,1.22667 -0.77054,0.33057 -1.400978,0.74196 -1.400978,0.9142 0,0.17222 -0.455443,0.50744 -1.012105,0.74492 -0.556662,0.23747 -1.840188,0.96142 -2.852294,1.60875 -3.338351,2.13526 -4.680555,2.96046 -6.028664,3.70642 -0.732661,0.40544 -1.414916,0.87036 -1.516132,1.0332 -0.101155,0.16283 -0.84648,0.64095 -1.656164,1.0625 -0.809685,0.42153 -1.803392,0.9647 -2.208235,1.207 -0.404842,0.24233 -0.984503,0.53982 -1.288128,0.66112 -0.303638,0.12129 -0.948655,0.52811 -1.433371,0.90404 -0.863231,0.66948 -0.871583,0.66681 -0.407471,-0.13 0.260604,-0.44742 1.154054,-1.28571 1.985417,-1.86285 0.831376,-0.57713 2.339682,-1.77332 3.351788,-2.65823 1.594592,-1.3942 3.708001,-3.10535 7.145491,-5.78542 0.488865,-0.38115 1.068527,-0.87056 1.28813,-1.0876 0.219616,-0.21705 1.191689,-1.01611 2.160177,-1.77574 0.968488,-0.75963 2.357613,-1.86947 3.086929,-2.46632 0.729321,-0.59683 1.468883,-1.08517 1.643471,-1.08517 0.174584,0 0.31743,-0.24595 0.31743,-0.54654 0,-0.30056 0.386433,-0.818 0.858757,-1.14981 0.959483,-0.67407 1.131744,-1.70884 0.338787,-2.03509 -0.668613,-0.2751 -2.30166,0.1596 -2.30166,0.61269 0,0.19094 -0.654851,0.45943 -1.455227,0.59667 -0.800386,0.13722 -1.736949,0.58327 -2.081262,0.9912 -0.344311,0.4079 -0.887793,0.74166 -1.20776,0.74166 -0.319958,0 -1.412207,0.42495 -2.42722,0.94431 -14.443142,7.39044 -17.487099,8.81573 -17.487099,8.18824 0,-0.36721 5.819774,-4.42729 8.096845,-5.64867 0.506046,-0.27145 1.388246,-0.89998 1.960432,-1.39677 0.572197,-0.49678 1.276063,-0.90323 1.564164,-0.90323 0.288104,0 0.523826,-0.1631 0.523826,-0.36246 0,-0.19934 0.828084,-0.76373 1.840189,-1.25417 1.012104,-0.49045 1.840184,-1.01608 1.840184,-1.1681 0,-0.15201 0.496855,-0.49705 1.104118,-0.76675 0.607266,-0.26968 1.104116,-0.61943 1.104116,-0.77715 0,-0.15775 0.662469,-0.60711 1.472154,-0.9986 0.809684,-0.39146 1.472152,-0.84082 1.472152,-0.99857 0,-0.15772 0.538262,-0.52024 1.19613,-0.80553 1.34531,-0.58343 1.734357,-1.03963 1.742546,-2.04331 0.0082,-0.97719 -3.088228,-0.9508 -4.602315,0.0391 -0.611377,0.39974 -1.751761,0.85558 -2.534183,1.01297 -0.782433,0.15737 -2.018744,0.62873 -2.74736,1.04745 -0.72863,0.4187 -1.611965,0.76128 -1.962956,0.76128 -0.351006,0 -1.28333,0.36055 -2.071825,0.8012 -0.788494,0.44065 -1.962196,0.87293 -2.608217,0.96059 -0.646021,0.0877 -1.754425,0.52621 -2.463138,0.97454 -0.708701,0.44832 -1.616915,0.81513 -2.018254,0.81513 -0.401338,0 -1.344175,0.32995 -2.095185,0.73323 -0.751011,0.40327 -1.862335,0.85563 -2.469598,1.00525 -0.607263,0.14963 -1.393947,0.36437 -1.748188,0.47721 -0.354228,0.11288 -0.644058,0.0423 -0.644058,-0.15701 0,-0.19918 1.117913,-0.93997 2.484258,-1.64617 1.366345,-0.7062 2.732679,-1.44246 3.036315,-1.63612 0.303627,-0.19366 2.074113,-1.15158 3.934415,-2.12874 1.860304,-0.97712 3.473236,-1.93427 3.58431,-2.12696 0.111087,-0.19268 0.760706,-0.46274 1.443628,-0.60011 0.68291,-0.13737 1.523655,-0.58383 1.868306,-0.99217 0.344661,-0.40834 1.178839,-0.8535 1.853749,-0.98926 0.674894,-0.13575 1.420788,-0.49705 1.65754,-0.80292 0.23674,-0.30586 0.957265,-0.6754 1.601149,-0.82116 0.64387,-0.14578 1.591661,-0.7492 2.106187,-1.34091 0.514528,-0.59173 1.24165,-1.25957 1.615831,-1.48409 0.374192,-0.22453 0.564496,-0.6092 0.422921,-0.85482 -0.364799,-0.63286 -2.149315,-0.55377 -2.99592,0.1328 -0.395559,0.3208 -1.535723,0.58884 -2.554603,0.60058 -1.012105,0.0125 -2.502654,0.3438 -3.312342,0.73807 -0.809684,0.39426 -2.372129,0.84475 -3.472099,1.00107 -1.09997,0.15634 -2.67334,0.60612 -3.496365,0.99951 -0.823035,0.39339 -2.324635,0.82713 -3.336904,0.96384 -1.012269,0.13673 -2.668445,0.58039 -3.680387,0.98594 -1.011942,0.40554 -2.91641,0.85887 -4.232142,1.00735 -2.166487,0.24454 -2.321015,0.21523 -1.63738,-0.31068 0.415179,-0.31937 1.361578,-0.70272 2.103105,-0.85187 0.741535,-0.14915 1.536397,-0.51429 1.766374,-0.81139 0.229965,-0.29711 1.022548,-0.65362 1.761293,-0.79224 0.738734,-0.13862 1.686372,-0.48188 2.10585,-0.76279 0.419468,-0.28092 1.495983,-0.73926 2.392246,-1.01849 0.896253,-0.27923 1.960795,-0.72529 2.365638,-0.99124 0.404842,-0.26597 1.481356,-0.6921 2.392245,-0.947 0.910901,-0.25488 1.904609,-0.69352 2.208235,-0.97472 0.303638,-0.2812 1.131721,-0.63727 1.840188,-0.79124 0.708479,-0.15398 1.68282,-0.54846 2.165215,-0.87663 0.482391,-0.32821 1.625278,-0.79909 2.539742,-1.04646 1.8874,-0.51054 2.81504,-1.60168 1.919734,-2.25813 -0.802395,-0.5883 -7.639262,-0.18866 -9.200949,0.53786 -0.708481,0.32956 -2.613077,0.71899 -4.232445,0.86536 -1.61937,0.14635 -3.777609,0.51304 -4.796093,0.81487 -1.654634,0.4903 -7.422706,1.35436 -9.097361,1.3628 -1.022875,0.005 -0.7468284,-0.74736 0.368046,-1.00326 0.55665,-0.12776 1.75738,-0.49662 2.668271,-0.81969 0.910901,-0.32307 2.76174,-0.83202 4.112995,-1.131 1.351241,-0.29898 2.957785,-0.82136 3.570093,-1.16086 0.612309,-0.33949 1.546257,-0.61727 2.075433,-0.61727 0.529186,0 1.738142,-0.34211 2.686563,-0.76023 0.94842,-0.41814 2.765642,-0.94315 4.03827,-1.16669 1.272629,-0.22354 2.744116,-0.76931 3.269974,-1.21281 0.525847,-0.4435 1.389204,-0.80907 1.918565,-0.81239 1.309578,-0.009 1.981378,-0.53248 1.822702,-1.42238 -0.114706,-0.64346 -0.536851,-0.75718 -3.180344,-0.85682 -1.699092,-0.064 -5.280645,0.22986 -8.092766,0.66409 -5.597121,0.86427 -17.4906833,1.29169 -17.6593116,0.63462 -0.055831,-0.21766 1.0168945,-0.51081 2.3922476,-0.65377 1.371437,-0.14253 3.238805,-0.47159 4.149695,-0.73122 0.910902,-0.25964 2.815499,-0.64308 4.232445,-0.85207 1.416949,-0.209 3.652786,-0.71081 4.968516,-1.11514 1.315744,-0.40432 3.517414,-0.84227 4.892614,-0.97323 3.251867,-0.30965 6.516569,-1.94004 6.516569,-3.25434 0,-1.05159 1.797097,-0.95609 -17.297792,-0.91926 -6.878451,0.0133 -12.5576772,-0.13587 -12.845872,-0.33735 -0.540016,-0.37751 0.9164371,-0.57798 7.610619,-1.04752 1.877509,-0.13169 3.947719,-0.40932 4.600481,-0.61694 0.652749,-0.20762 4.830409,-0.63353 9.283676,-0.94645 4.453263,-0.31293 8.476244,-0.68471 8.939971,-0.82617 1.086153,-0.33135 0.866151,-1.01847 -0.446617,-1.3949 -0.565209,-0.16208 -1.299703,-0.53984 -1.632193,-0.83947 -0.845205,-0.76171 -5.217087,-1.42438 -11.277631,-1.70938 -2.833896,-0.13327 -5.256851,-0.30965 -5.384338,-0.39198 -0.633382,-0.40893 -8.571247,-1.34551 -11.4037523,-1.34551 -1.7745984,0 -3.3289157,-0.17758 -3.4540202,-0.39461 -0.1502763,-0.26072 5.1185598,-0.39536 15.5279025,-0.39682 14.767862,-0.003 18.515652,-0.22901 18.515652,-1.121247 0,-0.573265 -0.890812,-1.244198 -1.65196,-1.244198 -0.422776,0 -1.412464,-0.351922 -2.19931,-0.782046 -1.584221,-0.865985 -4.719254,-1.585611 -6.907714,-1.585611 -0.78256,0 -1.911488,-0.27094 -2.508717,-0.602072 -0.597229,-0.331039 -2.61782,-0.761113 -4.490189,-0.95563 -1.872379,-0.194516 -3.983977,-0.616248 -4.692456,-0.9372 C 12.374576,92.699031 10.635593,92.308683 9.218646,92.152541 7.8016974,91.996387 6.3939555,91.702879 6.090317,91.500285 5.2684262,90.95188 16.952945,91.407737 21.547935,92.10337 c 6.364964,0.963552 11.734444,1.181487 13.412685,0.544385 0.798283,-0.303053 1.512103,-0.746126 1.58624,-0.984617 0.07417,-0.238488 -0.827429,-0.733351 -2.003501,-1.09969 -1.17606,-0.366337 -2.71796,-0.912649 -3.426427,-1.214037 -0.708479,-0.301376 -2.170283,-0.722343 -3.248468,-0.935483 -1.078174,-0.213153 -2.403121,-0.652032 -2.944305,-0.975299 -0.541184,-0.323267 -1.812059,-0.755145 -2.824166,-0.95973 -1.012104,-0.204598 -2.502667,-0.64463 -3.312351,-0.977853 -0.809684,-0.333236 -1.936685,-0.613669 -2.504454,-0.623201 -0.567759,-0.0099 -1.771691,-0.378474 -2.675407,-0.819882 -0.903717,-0.441409 -2.392831,-0.952743 -3.309152,-1.136288 -2.9792535,-0.59676 -2.2680753,-0.934055 1.496286,-0.709643 2.024211,0.120737 4.425662,0.507713 5.336551,0.860086 0.910902,0.352374 3.232629,0.802025 5.159409,0.999233 1.926768,0.197196 4.112562,0.631529 4.857323,0.965179 0.851981,0.38168 2.984278,0.67351 5.750351,0.787018 4.380517,0.179737 4.395551,0.177284 4.198478,-0.687274 -0.309911,-1.359446 -0.797841,-1.813556 -2.244689,-2.089066 -0.738737,-0.140662 -1.840016,-0.567693 -2.447277,-0.948947 -0.607264,-0.381242 -1.757778,-0.818181 -2.556693,-0.970953 -0.798925,-0.15277 -1.856365,-0.618315 -2.349878,-1.034538 -0.493503,-0.416223 -1.330403,-0.762308 -1.859767,-0.769084 -0.529349,-0.0064 -1.624939,-0.449801 -2.434624,-0.984504 -0.809683,-0.53469 -1.757544,-0.973095 -2.106375,-0.974209 -0.348819,-0.0012 -1.342516,-0.340099 -2.208223,-0.753303 -1.430918,-0.682993 -5.684016,-2.389213 -7.432157,-2.981579 -0.424279,-0.143766 -0.571017,-0.380828 -0.368035,-0.594581 0.410624,-0.43243 5.045752,0.447671 5.77493,1.096534 0.279481,0.248697 1.66329,0.627822 3.075121,0.842514 1.411831,0.214694 3.15162,0.652269 3.866197,0.972394 0.714565,0.320108 2.164337,0.705085 3.221696,0.855477 1.057369,0.15038 2.527932,0.604388 3.267917,1.0089 0.739994,0.4045 1.978212,0.735456 2.751591,0.735456 0.773378,0 2.021896,0.281773 2.774472,0.626158 1.736227,0.794508 2.970494,0.954758 4.029302,0.523142 1.009197,-0.4114 1.08128,-1.012445 0.159058,-1.326269 -0.371982,-0.126583 -1.229898,-0.760066 -1.906474,-1.407728 -0.67658,-0.647659 -1.455147,-1.177566 -1.730142,-1.177566 -0.274996,0 -1.942735,-0.783036 -3.706096,-1.740074 -6.30531,-3.422111 -14.624654,-7.730534 -14.927264,-7.730534 -0.169422,0 -0.72912,-0.355153 -1.243799,-0.789222 -0.514667,-0.43407 -1.244664,-0.789224 -1.622207,-0.789224 -0.377544,0 -0.68645,-0.17757 -0.68645,-0.394606 0,-0.654762 1.374359,-0.447958 3.599461,0.541616 1.157827,0.514915 2.694085,1.049231 3.413907,1.187349 0.719833,0.138119 1.955573,0.60469 2.7461,1.036817 0.790528,0.432143 1.729533,0.785706 2.086682,0.785706 0.35716,0 1.191632,0.354477 1.854392,0.787733 0.662758,0.433267 1.542635,0.788409 1.95528,0.789224 0.412647,7.89e-4 1.397069,0.355039 2.187594,0.787168 0.790528,0.43213 2.026268,0.897772 2.746102,1.034752 0.719821,0.136992 1.888428,0.567167 2.596897,0.955948 2.299839,1.262069 7.713716,2.027897 6.025069,0.852283 -0.216861,-0.15098 -0.598036,-0.689078 -0.847051,-1.195776 -0.249018,-0.5067 -0.990869,-1.16235 -1.648563,-1.456986 -0.65769,-0.294636 -1.409914,-0.812332 -1.671606,-1.150415 -0.261703,-0.338095 -0.69126,-0.614721 -0.954575,-0.614721 -0.263316,0 -0.970812,-0.443938 -1.572226,-0.986519 -0.601411,-0.542594 -1.283665,-0.98652 -1.516108,-0.98652 -0.232451,0 -1.285055,-0.67618 -2.33912,-1.502626 -1.054063,-0.826445 -2.661762,-1.951648 -3.572663,-2.500466 -5.262085,-3.170408 -11.112089,-7.346986 -10.68608,-7.629274 0.194338,-0.128788 1.808719,0.55066 3.587511,1.509891 1.778791,0.959216 4.393492,2.300339 5.81044,2.980261 1.416947,0.679924 3.188742,1.588416 3.937322,2.018866 0.74857,0.430463 1.678534,0.78265 2.066579,0.78265 0.388045,0 1.128485,0.356706 1.645417,0.79268 0.516933,0.435973 1.4417,0.90029 2.055024,1.031809 0.613338,0.13153 1.397722,0.573904 1.743075,0.983062 0.34535,0.40916 0.896628,0.743922 1.225048,0.743922 0.328439,0 0.973897,0.28294 1.434379,0.628762 0.46048,0.345812 1.710445,0.755797 2.777697,0.911086 1.851402,0.269374 1.933493,0.243274 1.788695,-0.56887 -0.172786,-0.969162 -1.978362,-2.735473 -4.731798,-4.628921 -1.036319,-0.712625 -2.609676,-1.962407 -3.496363,-2.777293 -0.886686,-0.81486 -2.274629,-2.011527 -3.084313,-2.65925 -2.650225,-2.120065 -3.14974,-2.533181 -4.391264,-3.631644 -0.674567,-0.596848 -1.327574,-1.085175 -1.451124,-1.085175 -0.219359,0 -1.610024,-1.183278 -2.782627,-2.367657 -0.322317,-0.325546 -1.039218,-0.810077 -1.593087,-1.076708 -0.553892,-0.266645 -1.007059,-0.749985 -1.007059,-1.074078 0,-0.460997 0.380546,-0.365412 1.748176,0.439103 0.961503,0.565602 2.327848,1.366911 3.036316,1.780703 0.708479,0.413795 1.950607,1.182791 2.760291,1.708891 0.809688,0.526098 2.022392,1.236906 2.694918,1.579585 0.672512,0.342679 2.026861,1.229055 3.00967,1.969722 0.982808,0.740678 2.337171,1.622256 3.009683,1.959075 0.672526,0.336818 2.050845,1.131753 3.062948,1.766513 1.012109,0.634774 2.254238,1.377493 2.760296,1.6505 0.506047,0.272993 1.291096,0.846923 1.744542,1.275394 0.691206,0.653121 0.973734,0.706088 1.748175,0.327751 1.919679,-0.937799 1.809574,-1.077234 -8.782733,-11.122622 -0.800967,-0.759629 -3.152367,-3.201268 -5.225298,-5.425873 -2.072945,-2.224605 -3.950173,-4.044748 -4.171624,-4.044748 -0.221447,0 -0.402633,-0.17757 -0.402633,-0.394604 0,-0.752853 1.189401,-0.388495 2.57627,0.789223 0.766723,0.651105 1.495945,1.183816 1.620479,1.183816 0.178471,0 3.301278,2.423867 7.028425,5.455318 0.20242,0.164645 1.34583,0.993282 2.540932,1.841421 1.195102,0.848152 2.545665,1.90621 3.001275,2.351238 1.245971,1.217069 1.776678,1.639041 2.761836,2.195987 0.4933,0.278893 0.979725,0.633282 1.080926,0.787545 0.304211,0.463652 2.498358,1.574414 3.110049,1.574414 0.766709,0 0.74718,-1.755917 -0.03014,-2.710335 -0.330268,-0.405516 -1.365374,-1.589019 -2.300232,-2.630009 -0.934883,-1.040988 -2.9419,-3.446795 -4.460052,-5.34623 -4.956602,-6.201418 -9.668402,-11.98425 -10.547578,-12.945119 -0.78026,-0.852773 -1.113637,-1.623273 -0.702334,-1.623273 0.233598,0 6.29401,5.648106 8.857653,8.255055 1.21453,1.235042 3.905811,3.720767 5.980635,5.523838 2.074815,1.803086 3.772386,3.435863 3.772386,3.628412 0,0.192551 0.242606,0.350095 0.539114,0.350095 0.296504,0 0.716377,0.355153 0.933038,0.789224 0.216672,0.434068 0.637635,0.78921 0.93548,0.78921 0.297854,0 0.895526,0.436512 1.328169,0.970013 0.620686,0.765389 0.930715,0.887314 1.469712,0.578024 0.884794,-0.507713 0.866468,-1.247791 -0.05292,-2.139952 -0.404843,-0.392827 -0.736072,-0.880588 -0.736072,-1.083921 0,-0.363808 -0.482484,-1.088419 -2.852304,-4.283663 -0.657867,-0.887 -1.196118,-1.8433 -1.196118,-2.125098 0,-0.281799 -0.248679,-0.614671 -0.552608,-0.739728 -0.303929,-0.124989 -0.831455,-0.854337 -1.172288,-1.620653 -0.340816,-0.766305 -0.750354,-1.393288 -0.910092,-1.393288 -0.159728,0 -0.564629,-0.57711 -0.89976,-1.282482 C 51.905672,37.492659 51.408866,36.64918 51.13678,36.323633 49.524,34.393876 48.482223,32.859954 48.255504,32.081165 48.113277,31.5926 47.676881,31.00924 47.285755,30.784803 46.894613,30.560367 46.5746,30.144145 46.5746,29.859854 c 0,-0.284267 -0.346577,-0.853149 -0.770167,-1.264173 -1.065266,-1.03365 -1.524823,-2.033208 -1.072592,-2.332879 0.202107,-0.133923 0.560376,0.210447 0.796149,0.765264 0.23578,0.554831 0.610532,1.008776 0.832799,1.008776 0.22227,0 1.171097,0.932266 2.108527,2.071695 0.937415,1.13943 2.973111,3.492298 4.523746,5.228576 1.550649,1.73628 3.908624,4.399889 5.239961,5.919133 5.772862,6.587684 6.880108,7.694876 7.695341,7.694876 0.454852,0 0.899339,-0.221969 0.987753,-0.493272 0.178392,-0.547416 -1.454934,-4.04883 -2.646066,-5.672428 -0.421123,-0.574041 -0.765691,-1.258586 -0.765691,-1.521235 0,-0.262649 -0.327993,-0.795798 -0.728876,-1.184782 -0.400882,-0.388994 -0.833363,-1.304388 -0.961059,-2.034209 -0.127698,-0.729832 -0.376971,-1.326958 -0.553954,-1.326958 -0.283438,0 -0.918805,-1.159969 -3.33862,-6.095175 -0.337687,-0.688728 -0.87595,-1.485341 -1.196118,-1.770245 -0.320176,-0.284903 -0.582138,-0.727854 -0.582138,-0.984341 0,-0.256486 -0.496853,-1.306354 -1.104116,-2.333041 -1.100063,-1.859857 -1.43559,-3.417726 -0.736071,-3.417726 0.202421,0 0.368035,0.160775 0.368035,0.357269 0,0.196509 0.538252,1.068355 1.196118,1.93746 0.657879,0.869102 2.02421,2.76621 3.036316,4.21578 1.012108,1.449572 2.590044,3.640861 3.506517,4.869541 0.916459,1.228677 2.324213,3.208756 3.128317,4.400174 1.520485,2.252835 1.950092,2.828894 3.486221,4.674511 0.506058,0.608008 1.103462,1.44847 1.32759,1.867685 0.504281,0.943274 1.605807,1.217732 2.027038,0.50507 0.504188,-0.853022 0.374026,-2.594311 -0.243411,-3.256324 -0.313043,-0.33564 -0.810419,-1.481282 -1.105275,-2.545856 -0.294865,-1.064583 -0.78401,-2.156195 -1.087002,-2.425809 -0.302995,-0.269624 -0.550894,-0.761244 -0.550894,-1.092488 0,-0.573591 -1.252231,-3.612669 -3.167258,-7.686736 -0.484648,-1.031031 -0.88116,-2.216976 -0.88116,-2.635429 0,-0.418452 -0.215704,-0.995475 -0.479347,-1.28227 -0.562372,-0.611779 -1.728888,-3.631493 -1.728888,-4.475523 0,-1.085212 0.606608,-0.593255 1.834495,1.487769 0.672318,1.139431 1.693919,2.856837 2.270216,3.816442 0.57631,0.959605 1.047826,1.953126 1.047826,2.207834 0,0.254708 0.331229,0.784514 0.73607,1.177342 0.404842,0.392827 0.736083,0.928644 0.736083,1.190717 0,0.262072 0.496853,1.146845 1.104117,1.966151 0.607263,0.819307 1.104117,1.705671 1.104117,1.969684 0,0.264013 0.414034,0.959042 0.920096,1.544506 0.506046,0.585466 0.920092,1.297739 0.920092,1.582843 0,0.285093 0.367078,1.018721 0.815734,1.630261 0.448647,0.611552 1.069719,1.652002 1.380141,2.312125 0.388606,0.826358 0.927115,1.277861 1.728798,1.44947 1.126415,0.241133 1.15992,0.209271 1.026986,-0.976424 -0.07558,-0.674126 -0.225607,-2.083769 -0.33341,-3.132548 -0.107817,-1.048766 -0.528546,-2.36013 -0.934978,-2.91412 -0.406429,-0.554005 -0.738965,-1.567289 -0.738965,-2.251746 0,-0.68447 -0.33999,-1.947929 -0.755543,-2.807701 -0.415545,-0.859775 -0.926964,-2.539882 -1.136477,-3.733568 -0.209509,-1.193696 -0.683293,-2.791858 -1.052847,-3.551486 -0.36954,-0.759616 -0.874083,-2.489021 -1.121182,-3.843105 -0.247101,-1.354085 -0.675459,-2.663247 -0.9519,-2.909238 -0.276446,-0.245991 -0.491413,-1.091411 -0.477724,-1.878719 0.02382,-1.366021 0.04229,-1.38636 0.405601,-0.444941 0.209375,0.54258 0.530017,1.252889 0.712534,1.578435 0.878754,1.567413 3.641467,7.739777 3.641467,8.135648 0,0.247018 0.221133,0.645893 0.491409,0.886387 0.270276,0.240504 0.713738,1.194511 0.985485,2.120026 0.271749,0.925501 0.711014,1.960615 0.976151,2.300264 0.265127,0.33965 0.67269,1.227514 0.905678,1.97304 0.232992,0.745538 0.709675,1.710668 1.059299,2.144737 0.349616,0.434069 0.741909,1.39489 0.871756,2.13518 0.129835,0.740278 0.553451,1.584297 0.941342,1.875613 0.387905,0.291305 0.905156,1.195001 1.149441,2.008209 0.616434,2.05202 1.056399,2.586572 1.675473,2.035687 1.103476,-0.981924 1.069146,-6.020856 -0.04918,-7.219939 -0.313098,-0.335692 -0.615989,-1.861187 -0.764841,-3.852148 -0.135545,-1.81299 -0.476051,-3.784076 -0.756676,-4.3802 -0.535308,-1.137138 -1.590821,-7.830941 -1.594544,-10.11217 -0.0025,-1.1383 0.07767,-1.259737 0.549882,-0.839545 0.303641,0.270175 0.553685,0.869041 0.555659,1.330791 0.0025,0.461748 0.397039,1.745508 0.877911,2.852803 0.480877,1.107278 1.064591,2.964555 1.297162,4.127268 0.232567,1.162725 0.665223,2.401187 0.961455,2.752157 0.296231,0.350959 0.682279,1.462709 0.857891,2.470546 0.175602,1.007837 0.594496,2.28278 0.930877,2.833226 0.336368,0.550434 0.766228,1.875113 0.955251,2.943731 0.38731,2.18971 2.417758,5.48768 3.401821,5.525403 0.964661,0.03695 1.101501,-1.417723 0.443143,-4.710881 -0.325427,-1.627756 -0.737056,-6.333465 -0.91477,-10.457127 -0.177703,-4.123664 -0.518709,-8.26198 -0.757782,-9.196248 -0.337867,-1.320321 -0.335281,-1.80375 0.01167,-2.170351 0.708387,-0.748681 1.36271,0.568094 1.626401,3.273009 0.126902,1.301808 0.490908,3.033929 0.80889,3.849128 0.317983,0.815212 0.7344,2.801741 0.925393,4.414517 0.190962,1.61279 0.664813,3.654888 1.052995,4.538008 0.388173,0.883119 0.819572,2.896035 0.958649,4.473144 0.157782,1.789094 0.492479,3.184723 0.889998,3.711072 0.63219,0.837091 0.646226,0.837831 1.816262,0.09682 l 1.179147,-0.746828 -0.0289,-11.842949 c -0.0159,-6.513615 -0.0222,-12.225858 -0.014,-12.693869 0.0117,-0.653673 0.18558,-0.803088 0.75104,-0.644542 0.63408,0.177783 0.73707,0.541767 0.74325,2.626662 0.009,2.608477 0.92236,10.676892 1.2808,11.298716 0.12018,0.208466 0.45101,2.986711 0.73522,6.173866 0.50631,5.677725 0.99304,7.335188 1.96493,6.691159 0.2081,-0.137904 0.57641,-1.268744 0.81849,-2.513003 0.24205,-1.244245 0.74566,-3.375206 1.11909,-4.735454 0.39816,-1.450259 0.77275,-4.469698 0.90567,-7.300258 0.12465,-2.654905 0.47126,-6.070101 0.77024,-7.589346 0.65234,-3.314952 1.66924,-13.1735092 1.40595,-13.6302787 -0.10272,-0.1780954 -0.0277,-0.4291378 0.16657,-0.5578746 0.22299,-0.1477587 0.39483,6.3120493 0.46605,17.5191483 0.10217,16.083015 0.1717,17.816264 0.73843,18.423559 0.9039,0.968571 1.66962,0.1356 1.98099,-2.155032 0.13774,-1.013172 0.54234,-2.464073 0.89914,-3.224225 0.3568,-0.760156 0.84184,-2.802256 1.07788,-4.538008 0.23602,-1.735741 0.69024,-3.766544 1.00934,-4.512883 0.3191,-0.746341 0.79334,-2.788441 1.05384,-4.538008 0.26053,-1.749554 0.81758,-4.306669 1.2379,-5.682472 0.4203,-1.375803 0.7642,-3.0288449 0.7642,-3.6734245 0,-0.7194627 0.1495,-1.0728882 0.3872,-0.9153817 0.42392,0.2809218 0.15463,6.7160202 -0.3949,9.4366802 -0.17299,0.856453 -0.23454,1.695999 -0.13673,1.865642 0.0978,0.169655 -0.0577,1.15878 -0.34557,2.198066 -0.4441,1.603395 -0.66334,4.993894 -0.77205,11.9392 -0.0119,0.759614 0.10583,2.151249 0.26164,3.092507 0.25191,1.52196 0.20074,1.734512 -0.46229,1.920411 -0.86504,0.242547 -1.00673,0.906214 -0.19347,0.906214 0.30364,0 0.55205,-0.163468 0.55205,-0.363257 0,-0.199788 0.48302,-0.477004 1.07338,-0.616024 1.20854,-0.284616 1.33678,-0.523056 1.70781,-3.175919 0.14526,-1.038647 0.65544,-2.50673 1.13372,-3.2624 0.47828,-0.755658 0.86959,-1.872481 0.86959,-2.481818 0,-0.609322 0.41405,-1.942805 0.92011,-2.963266 0.50606,-1.020461 0.92009,-2.3698 0.92009,-2.998523 0,-0.628724 0.41405,-1.977061 0.92009,-2.996306 0.50606,-1.019247 0.92096,-2.20974 0.922,-2.645537 0.001,-0.435799 0.40991,-1.502651 0.90859,-2.37079 0.4987,-0.86814 0.9119,-1.963459 0.91823,-2.434037 0.0156,-1.164667 0.38236,-2.10397 0.82145,-2.10397 0.48669,0 0.03,3.491545 -0.8515,6.511048 -0.38019,1.302209 -0.7983,3.610676 -0.9291,5.12992 -0.13082,1.519245 -0.54831,3.619633 -0.92774,4.667535 -0.37943,1.047915 -0.83965,3.445154 -1.0227,5.327218 -0.18306,1.882076 -0.59339,3.954671 -0.91186,4.605777 -0.71015,1.451977 -0.72091,1.818089 -0.0809,2.756514 0.47372,0.694628 0.59909,0.630591 2.18003,-1.113516 0.94689,-1.044634 1.7907,-2.40681 1.93759,-3.127901 0.14309,-0.702542 0.56547,-1.694924 0.93861,-2.205268 0.37315,-0.510343 0.78189,-1.519093 0.90832,-2.241661 0.12642,-0.722569 0.45273,-1.405461 0.72514,-1.517541 0.2724,-0.112095 0.70175,-0.967859 0.95412,-1.901726 0.25237,-0.933881 0.84129,-2.316296 1.30874,-3.07203 0.46744,-0.755745 0.84989,-1.664063 0.84989,-2.018492 0,-0.354413 0.30846,-1.067877 0.68546,-1.585486 0.37699,-0.517594 0.81217,-1.38502 0.96707,-1.9276 0.1549,-0.542595 0.67452,-1.712422 1.15474,-2.599634 0.48021,-0.887203 0.87311,-1.908253 0.87311,-2.268991 0,-0.360754 0.18441,-0.655902 0.40983,-0.655902 0.58596,0 0.0594,3.370096 -0.81292,5.20359 -0.38556,0.810327 -0.70102,1.930231 -0.70102,2.48868 0,0.55845 -0.39209,1.852931 -0.87131,2.876637 -0.47922,1.023704 -0.98777,2.715861 -1.13012,3.760369 -0.14234,1.044507 -0.56064,2.465098 -0.92954,3.15687 -0.3689,0.691782 -0.77554,2.059583 -0.90369,3.039577 -0.12813,0.979995 -0.5588,2.3118 -0.95702,2.95956 -0.41829,0.680412 -0.72506,1.852669 -0.72646,2.77594 -0.004,2.681132 1.51088,3.480412 2.37821,1.254743 0.27659,-0.70977 0.83291,-1.610711 1.23625,-2.002098 0.40335,-0.391374 0.84251,-1.177854 0.97592,-1.747739 0.13339,-0.569883 0.64515,-1.436207 1.13722,-1.925158 0.49205,-0.488953 0.89465,-1.225123 0.89465,-1.635909 0,-0.4108 0.32701,-1.06421 0.72668,-1.452027 0.39968,-0.387806 0.83699,-1.08123 0.97182,-1.540936 0.13482,-0.459707 0.56635,-1.279766 0.95896,-1.822348 1.25922,-1.740223 3.23115,-5.284284 3.23115,-5.807177 0,-0.278617 0.14209,-0.506573 0.31573,-0.506573 0.3722,0 2.99663,-4.458451 2.99663,-5.090745 0,-0.238578 0.25959,-0.433781 0.57684,-0.433781 0.67119,0 0.47349,1.045634 -0.56561,2.991709 -0.35711,0.668777 -0.85788,1.911784 -1.11286,2.762264 -0.25497,0.850456 -0.67817,1.812652 -0.94044,2.138211 -0.26227,0.325546 -0.60015,1.12464 -0.75086,1.775745 -0.1507,0.651105 -0.66045,1.964962 -1.13279,2.919681 -0.47233,0.954722 -0.8588,2.030065 -0.8588,2.389638 0,0.359589 -0.41402,1.255506 -0.92009,1.990938 -0.50604,0.735445 -0.92008,1.712096 -0.92008,2.170348 0,0.458255 -0.41405,1.43492 -0.92011,2.170349 -0.50605,0.735445 -0.92009,1.842576 -0.92009,2.460303 0,0.617728 -0.33846,1.613979 -0.75214,2.213883 -1.36432,1.978589 0.009,3.370134 1.42245,1.442257 0.39808,-0.542593 0.90269,-0.98652 1.12139,-0.98652 0.2187,0 0.65104,-0.525447 0.9608,-1.167672 0.30973,-0.642213 0.93505,-1.602081 1.38958,-2.133027 0.84399,-0.985857 1.59413,-1.997375 3.55128,-4.788782 0.60869,-0.86814 1.45272,-2.022376 1.87564,-2.564968 1.3967,-1.791938 2.94431,-4.050634 2.94431,-4.297152 0,-0.133397 0.74528,-1.100579 1.65616,-2.149283 0.9109,-1.048715 1.65618,-2.079021 1.65618,-2.289555 0,-0.210548 0.49608,-0.9503 1.10241,-1.643888 0.60633,-0.693599 1.10319,-1.375264 1.10412,-1.514822 0.001,-0.13956 0.23139,-0.348228 0.5121,-0.463727 0.75171,-0.30929 0.3022,1.256407 -0.75283,2.62214 -0.47392,0.613494 -0.86169,1.266715 -0.86169,1.4516 0,0.184873 -0.24985,0.604027 -0.55523,0.93145 -0.30537,0.327425 -0.89761,1.361163 -1.31609,2.297185 -1.39288,3.115513 -2.35495,4.969421 -2.96164,5.707043 -0.33032,0.401582 -0.72678,1.174086 -0.88105,1.716667 -0.15429,0.542594 -0.67073,1.536003 -1.14766,2.207598 -0.47693,0.671594 -0.86714,1.398759 -0.86714,1.615932 0,0.217172 -0.32183,0.70715 -0.71521,1.088844 -0.39337,0.381693 -0.81679,1.189879 -0.94095,1.795983 -0.12415,0.606092 -0.54758,1.414276 -0.94096,1.795983 -0.39337,0.381692 -0.71624,0.977213 -0.71748,1.323387 -0.001,0.346175 -0.24968,1.13804 -0.55206,1.759688 -0.69309,1.424911 -0.69261,1.829285 0.002,1.829285 0.30364,0 0.55205,-0.158319 0.55205,-0.351821 0,-0.193515 0.45379,-0.473949 1.00843,-0.623202 0.55462,-0.149251 1.09289,-0.41631 1.19612,-0.593442 0.26781,-0.45952 7.40702,-8.550027 13.34507,-15.123309 3.17389,-3.513401 5.06053,-5.337714 5.06053,-4.893336 0,0.389683 -0.41404,1.119954 -0.92009,1.622809 -0.50605,0.502852 -0.9201,1.03137 -0.9201,1.174498 0,0.406704 -2.30195,3.893165 -3.22134,4.878907 -0.45489,0.487737 -0.82707,1.072162 -0.82707,1.298703 0,0.226541 -0.8281,1.478778 -1.84019,2.782741 -1.0121,1.303975 -1.84021,2.560171 -1.84021,2.791533 0,0.231375 -0.45544,1.005457 -1.0121,1.720162 -0.55665,0.714715 -1.42616,1.950357 -1.93221,2.745868 -0.50605,0.79551 -1.29273,1.902678 -1.74817,2.460363 -0.45546,0.557699 -0.84076,1.210031 -0.85625,1.449634 -0.0155,0.239604 -0.0837,0.746391 -0.15146,1.126205 -0.21113,1.182514 1.3836,0.810339 3.33956,-0.779368 1.65036,-1.341297 8.91866,-7.86408 9.35341,-8.393974 0.93254,-1.136611 7.43035,-7.104276 7.73539,-7.104276 0.21823,0 0.79451,-0.488325 1.28065,-1.085175 0.82075,-1.007674 0.86899,-1.021763 0.6755,-0.197308 -0.11459,0.488325 -0.36002,0.887865 -0.54535,0.887865 -0.18534,0 -0.45586,0.337406 -0.60115,0.749784 -0.216,0.613055 -2.96966,4.117512 -4.52694,5.761263 -0.62586,0.660597 -1.86535,2.142596 -4.75416,5.684276 -1.51816,1.861259 -3.13294,3.709481 -3.58838,4.107131 -0.45544,0.397662 -0.83094,0.932102 -0.83444,1.187636 -0.003,0.255547 -0.37613,0.845107 -0.82809,1.310138 -0.99645,1.025295 -2.31326,3.605943 -2.00733,3.933943 0.29851,0.320074 3.5354,-1.029828 3.8662,-1.612351 0.14504,-0.255396 0.51213,-0.587243 0.81577,-0.737423 0.30363,-0.150178 1.21451,-0.805541 2.02421,-1.456358 0.80969,-0.650818 2.38306,-1.836964 3.49637,-2.63588 1.76656,-1.267693 3.02445,-2.288791 5.13902,-4.171657 0.29622,-0.263737 0.81528,-0.657105 1.15348,-0.874139 2.8982,-1.859832 4.01257,-2.692177 4.01257,-2.99707 0,-0.196408 0.21957,-0.357108 0.48792,-0.357108 0.26833,0 0.87687,-0.443938 1.35227,-0.986519 0.47542,-0.542594 1.1858,-0.98652 1.57863,-0.98652 0.69055,0 0.69274,0.03519 0.0662,1.060362 -0.3564,0.583198 -1.13897,1.503314 -1.73903,2.044693 -0.60009,0.541392 -1.28294,1.17406 -1.51747,1.405937 -0.44016,0.435208 -1.80516,1.731105 -6.47101,6.143443 -3.80322,3.5966 -9.2152,9.365803 -9.2152,9.823483 0,1.246688 4.00244,0.255986 6.07265,-1.50314 0.90554,-0.769472 2.12254,-1.527372 4.04842,-2.521231 0.80968,-0.417837 1.72058,-0.98081 2.02421,-1.25106 0.30364,-0.270238 1.53136,-1.058848 2.7283,-1.752461 1.19692,-0.693611 2.5856,-1.606362 3.08595,-2.028347 0.50032,-0.421983 1.19293,-0.767244 1.5391,-0.767244 0.34618,0 0.92917,-0.355154 1.29555,-0.789223 0.36638,-0.43407 0.83186,-0.789212 1.0344,-0.789212 0.20255,0 0.91112,-0.443939 1.5746,-0.986519 0.66345,-0.542594 1.58998,-0.984692 2.05895,-0.98245 0.79429,0.0039 0.76448,0.08391 -0.43551,1.171318 -2.58984,2.346779 -5.35736,4.629209 -6.18434,5.100338 -0.46627,0.265643 -2.16807,1.62589 -3.78178,3.022759 -1.61372,1.39688 -3.10061,2.53978 -3.30421,2.53978 -0.2036,0 -0.45715,0.242935 -0.5634,0.539864 -0.10626,0.296927 -1.02203,1.115695 -2.03502,1.819479 -1.01298,0.703782 -2.0372,1.61508 -2.27601,2.025089 -0.23881,0.410012 -0.61392,0.745477 -0.83359,0.745477 -0.21965,0 -0.75831,0.40966 -1.19703,0.910359 -0.61779,0.705098 -0.69864,1.016517 -0.35859,1.381138 0.66232,0.710121 2.33628,0.566228 3.68732,-0.316979 0.66275,-0.433256 1.47251,-0.788409 1.79945,-0.789211 0.32694,-7.87e-4 0.98941,-0.332197 1.47215,-0.736408 0.48276,-0.404224 1.29178,-0.858972 1.79782,-1.010554 1.21592,-0.364246 4.82231,-2.209474 5.52057,-2.824647 0.30364,-0.267497 1.25594,-0.687301 2.11622,-0.932891 0.86029,-0.245591 1.56418,-0.603487 1.56418,-0.795322 0,-0.191837 0.62105,-0.558123 1.38013,-0.813985 0.75909,-0.255848 2.19935,-0.891123 3.20059,-1.411736 1.00126,-0.520601 2.06472,-0.946555 2.36327,-0.946555 0.29856,0 0.83337,-0.281924 1.1885,-0.626495 0.3551,-0.344581 0.94781,-0.550095 1.31712,-0.456713 0.55058,0.139222 0.48752,0.250939 -0.35042,0.620709 -0.56201,0.248007 -1.22449,0.635887 -1.47215,0.861952 -0.24767,0.226064 -2.18927,1.576831 -4.3147,3.001705 -2.12542,1.424873 -4.57312,3.107047 -5.43932,3.738162 -0.86622,0.631104 -1.71338,1.147471 -1.88257,1.147471 -0.16921,0 -0.7743,0.393578 -1.34469,0.874627 -1.09218,0.921144 -2.54326,1.848586 -4.42808,2.830196 -0.62338,0.324657 -1.34753,0.866901 -1.60923,1.204996 -0.2617,0.338082 -0.62808,0.614709 -0.81418,0.614709 -0.54857,0 -1.66798,1.309863 -1.94491,2.275828 -0.25156,0.877447 -0.2152,0.889757 1.88653,0.638169 1.17868,-0.141088 2.39148,-0.479296 2.69512,-0.751589 0.30362,-0.272279 1.46079,-0.699785 2.57146,-0.950012 1.1107,-0.250225 2.35526,-0.690881 2.76569,-0.979229 0.41044,-0.28835 1.3235,-0.655502 2.029,-0.815902 0.70551,-0.160387 1.77959,-0.606004 2.38685,-0.990252 0.60726,-0.384247 1.69307,-0.810615 2.41289,-0.947481 0.71983,-0.136865 1.95557,-0.60241 2.74611,-1.034539 0.79052,-0.432128 1.77739,-0.785692 2.19303,-0.785692 0.41564,0 1.33985,-0.335678 2.05379,-0.745951 1.31012,-0.752878 4.03551,-1.354999 4.01827,-0.887765 -0.004,0.13892 -1.20586,0.859761 -2.66828,1.601853 -1.46243,0.742108 -2.90738,1.571748 -3.21101,1.843653 -0.30365,0.271903 -1.04892,0.620307 -1.65617,0.774218 -0.60728,0.153899 -1.43537,0.58837 -1.8402,0.965466 -0.40485,0.37711 -1.21986,0.80875 -1.81114,0.959205 -0.5913,0.150455 -1.48312,0.617691 -1.98185,1.038308 -0.49871,0.42062 -1.1255,0.764753 -1.39284,0.764753 -0.26735,0 -1.09621,0.443938 -1.84191,0.986531 -0.74572,0.542582 -1.53975,0.990465 -1.76453,0.995288 -0.22478,0.005 -0.82273,0.35603 -1.32879,0.780443 -0.50605,0.424426 -1.30064,0.775622 -1.76575,0.780444 -0.46511,0.005 -1.22939,0.452718 -1.69838,0.9953 -0.46899,0.542593 -1.0919,0.98652 -1.38423,0.98652 -0.29234,0 -0.85302,0.266367 -1.24594,0.591914 -0.70719,0.585928 -0.70719,0.597902 0,1.18383 0.96055,0.795849 2.01853,0.745176 3.93789,-0.188642 0.8824,-0.429298 2.25595,-0.784452 3.05232,-0.789211 0.79638,-0.005 2.12131,-0.344809 2.9443,-0.755634 0.823,-0.410837 2.35695,-0.845269 3.40876,-0.965416 1.05183,-0.12011 2.40866,-0.493587 3.01514,-0.829865 0.60649,-0.336267 2.16681,-0.772981 3.4674,-0.970465 1.30058,-0.197484 2.86209,-0.634847 3.47004,-0.971929 0.60794,-0.337068 2.24465,-0.71345 3.63712,-0.836378 l 2.53176,-0.223522 -1.28812,0.651444 c -3.40229,1.720635 -4.36581,2.131034 -5.00883,2.133426 -0.38268,0.0014 -1.19262,0.355417 -1.79989,0.786619 -0.60727,0.431214 -1.45209,0.78519 -1.87738,0.786619 -0.4253,0.0012 -1.55197,0.446544 -2.50373,0.989124 -0.95176,0.542594 -2.11341,0.986521 -2.58145,0.986521 -0.46805,0 -1.26506,0.34923 -1.77116,0.77606 -0.50609,0.426831 -1.59732,0.892161 -2.42496,1.03405 -0.82764,0.141901 -1.7865,0.591765 -2.13081,0.999696 -0.3443,0.407918 -1.08642,0.741681 -1.64913,0.741681 -1.6567,0 -2.83598,0.672383 -3.46436,1.975257 l -0.58838,1.219937 4.68458,-0.249863 c 3.12017,-0.166435 5.24654,-0.483703 6.36735,-0.950061 0.93614,-0.389533 3.30558,-0.818267 5.34025,-0.966305 2.01162,-0.146347 3.83341,-0.421333 4.04842,-0.611077 1.05555,-0.931413 9.36377,-1.693684 8.85583,-0.812506 -0.12509,0.217034 -0.80394,0.394618 -1.50854,0.394618 -0.70459,0 -1.92173,0.350445 -2.70478,0.778766 -0.78304,0.428321 -2.1428,0.895618 -3.02165,1.038433 -0.87888,0.142815 -2.26042,0.571888 -3.0701,0.953481 -0.80968,0.381592 -2.38304,0.819069 -3.49636,0.972153 -1.11331,0.153098 -2.4139,0.543898 -2.89018,0.868429 -0.47629,0.324544 -1.85978,0.740692 -3.07443,0.924775 -1.21462,0.184083 -2.49865,0.616311 -2.85337,0.960507 -0.35474,0.344207 -1.70392,0.821387 -2.99821,1.060413 -3.96535,0.732313 -4.1978,1.538345 -0.6589,2.284835 2.51945,0.53146 7.22101,0.321551 12.84312,-0.573392 3.2309,-0.5143 6.72029,-0.787644 13.52145,-1.059212 3.43534,-0.137179 3.54366,0.585141 0.13826,0.921995 -1.40387,0.138858 -3.35404,0.534541 -4.33369,0.879275 -0.97967,0.344745 -3.22655,0.799805 -4.99306,1.011243 -1.76651,0.211436 -3.58489,0.59849 -4.04084,0.860124 -0.45594,0.261634 -2.27145,0.618416 -4.03443,0.792831 -1.98514,0.196406 -4.01966,0.683792 -5.34415,1.280229 -1.17629,0.529694 -2.55274,1.024843 -3.0588,1.100329 -0.603,0.08992 -0.9583,0.424287 -1.03098,0.970188 -0.0918,0.688778 0.13126,0.875855 1.28812,1.080828 0.76947,0.136321 8.32334,0.249831 16.78636,0.252211 10.16348,0.003 15.3101,0.13832 15.15986,0.39897 -0.1251,0.21703 -1.58403,0.40817 -3.24205,0.42475 -1.65804,0.0165 -4.7536,0.27678 -6.879,0.57821 -2.12543,0.30142 -5.85182,0.73022 -8.28088,0.95288 -11.96399,1.09666 -12.31589,1.15593 -13.65239,2.29931 -0.68922,0.58964 -1.25314,1.18625 -1.25314,1.3258 -3e-5,0.57635 1.67318,0.81925 9.23438,1.34054 4.37041,0.30131 8.35905,0.71612 8.86359,0.9218 0.50454,0.20567 2.3941,0.48352 4.19902,0.61745 1.8049,0.13392 4.27537,0.31819 5.4899,0.4095 1.21452,0.0913 2.62226,0.17765 3.12832,0.19192 0.74078,0.0209 0.81252,0.10331 0.36804,0.42327 -0.35085,0.25252 -5.91767,0.37788 -15.2736,0.34391 -8.09684,-0.0294 -15.01136,0.0744 -15.3656,0.23075 -1.02638,0.45286 -0.75313,1.1998 0.73608,2.01199 0.75908,0.41398 1.46703,0.87599 1.57322,1.02668 0.31644,0.44904 3.35959,1.08716 5.23403,1.0975 0.96069,0.005 2.69968,0.35414 3.8644,0.77519 1.16473,0.42104 3.27701,0.88952 4.69396,1.04105 1.41695,0.15154 3.22115,0.51848 4.00934,0.81542 0.78818,0.29696 2.55362,0.65157 3.92319,0.78805 2.43315,0.24246 3.66448,0.66349 3.24761,1.11045 -0.29861,0.32018 -15.14488,-0.50366 -17.98885,-0.99823 -1.31574,-0.22881 -4.30706,-0.50753 -6.64738,-0.61937 -3.46676,-0.16567 -4.3385,-0.0956 -4.7052,0.37811 -0.64344,0.83129 0.24801,1.67406 2.10817,1.99299 0.81295,0.13938 2.0248,0.59122 2.69297,1.00409 0.66818,0.41288 2.07815,0.8719 3.13327,1.02007 1.05512,0.14816 2.53929,0.60879 3.29816,1.02361 0.75886,0.41484 1.83546,0.75423 2.39243,0.75423 0.55698,0 1.80547,0.32992 2.77447,0.73315 0.96899,0.40323 2.44378,0.84552 3.27728,0.98283 0.83351,0.13732 1.98843,0.51278 2.56648,0.83434 0.57806,0.32155 1.76133,0.69883 2.62949,0.83843 1.46145,0.23498 2.25175,0.7465 1.83828,1.18982 -0.26268,0.28166 -6.79961,-0.61362 -9.16296,-1.25491 -1.14696,-0.31124 -3.38279,-0.67009 -4.96852,-0.79744 -1.58571,-0.12738 -3.83608,-0.5703 -5.00081,-0.98428 -2.80805,-0.99809 -8.17983,-1.06792 -8.52239,-0.11088 -0.35235,0.98449 0.41438,1.66054 2.21086,1.94939 0.8974,0.14429 1.75335,0.47435 1.90211,0.73347 0.14875,0.25911 1.26416,0.83645 2.47869,1.28296 3.21538,1.18214 4.53709,1.7126 6.85473,2.75127 1.13863,0.51028 2.40188,0.92778 2.80722,0.92778 0.40536,0 0.9422,0.26509 1.19298,0.58908 0.2508,0.32398 1.14057,0.77345 1.97727,0.9988 0.83671,0.22534 2.26658,0.75018 3.17747,1.1663 0.91089,0.41613 2.0288,0.8665 2.48426,1.00083 0.45545,0.13433 0.82807,0.3838 0.82807,0.55434 0,0.55094 -3.78959,-0.027 -6.54041,-0.99759 -1.47183,-0.51926 -3.08325,-0.94411 -3.58094,-0.94411 -0.49769,0 -1.52931,-0.26707 -2.29248,-0.5935 -0.76318,-0.32641 -2.46411,-0.84901 -3.77985,-1.1613 -1.31572,-0.3123 -3.05471,-0.83652 -3.86441,-1.16494 -0.80967,-0.32841 -2.21742,-0.61054 -3.12832,-0.62698 -0.91089,-0.0164 -1.97765,-0.29059 -2.37058,-0.60924 -0.83598,-0.67794 -2.62952,-0.76844 -2.98563,-0.15065 -0.30143,0.52295 1.89021,3.02423 2.94151,3.35715 0.73061,0.23133 5.32864,2.57141 6.46312,3.28923 0.30363,0.19213 2.29105,1.23827 4.41646,2.32475 6.7505,3.45076 11.58367,6.03386 11.88969,6.35451 0.58149,0.60925 -2.84066,-0.0371 -4.23523,-0.79986 -0.78115,-0.42729 -2.11911,-0.92984 -2.97321,-1.11678 -1.48492,-0.32501 -3.76698,-1.22669 -7.17536,-2.83509 -0.86568,-0.40853 -1.8594,-0.74833 -2.20822,-0.75511 -0.34883,-0.006 -1.4623,-0.44911 -2.47441,-0.98291 -1.01211,-0.53383 -2.12492,-0.97222 -2.47293,-0.9742 -0.348,-0.003 -1.28768,-0.36962 -2.08816,-0.81699 -2.00906,-1.12278 -4.5893,-0.9495 -4.7574,0.31949 -0.0891,0.67225 0.1339,0.98295 0.92009,1.28224 0.5707,0.21726 1.22542,0.52829 1.45493,0.6912 0.22951,0.16292 1.32317,0.96211 2.43035,1.77597 1.10717,0.81389 2.13276,1.47979 2.2791,1.47979 0.14632,0 1.45413,0.85356 2.90621,1.8968 1.45208,1.04326 2.88857,2.02279 3.1922,2.17675 0.30364,0.15398 1.29735,0.79979 2.20824,1.43516 0.91089,0.63537 2.8155,1.87627 4.23245,2.75755 3.31068,2.0591 5.05005,3.5673 4.11723,3.57004 -0.57488,0.001 -4.47245,-1.7513 -6.14144,-2.76221 -0.52518,-0.31811 -3.62017,-1.92977 -6.80873,-3.54554 -0.80968,-0.4103 -2.63147,-1.29725 -4.04842,-1.97098 -1.41695,-0.67375 -3.18873,-1.57225 -3.93732,-1.99666 -0.74857,-0.42443 -1.55053,-0.77169 -1.78214,-0.77169 -0.23159,0 -0.84218,-0.35515 -1.35685,-0.78922 -0.56917,-0.48003 -1.49305,-0.78921 -2.35829,-0.78921 -1.25266,0 -1.42252,0.11214 -1.42252,0.93864 0,0.67255 0.31549,1.07877 1.11284,1.43289 0.61206,0.27182 1.23313,0.69291 1.38015,0.93575 0.14701,0.24283 1.09539,1.1082 2.10749,1.92305 2.87713,2.31639 3.45104,2.78856 4.71072,3.87576 1.51025,1.30348 6.74672,5.51135 7.81969,6.28365 0.92696,0.66724 3.53747,2.94895 4.7453,4.14761 0.43972,0.4364 1.19417,0.98227 1.67655,1.21304 0.48238,0.2308 0.71558,0.52662 0.51819,0.65743 -0.19738,0.1308 -1.4192,-0.485 -2.71513,-1.36845 -1.29596,-0.88346 -3.44303,-2.22051 -4.77129,-2.97122 -1.32828,-0.75071 -2.66951,-1.60626 -2.98056,-1.90121 -0.31104,-0.29498 -1.13912,-0.81666 -1.8402,-1.15931 -0.70106,-0.34266 -1.93713,-1.05347 -2.74682,-1.57958 -0.80968,-0.52613 -2.05181,-1.24831 -2.76027,-1.60487 -0.70849,-0.35656 -1.42059,-0.89555 -1.58247,-1.19774 -0.16187,-0.30219 -0.49606,-0.54944 -0.74265,-0.54944 -0.24657,0 -1.05765,-0.44394 -1.80238,-0.98651 -0.74471,-0.54261 -1.67386,-0.98652 -2.06474,-0.98652 -0.3909,0 -0.93795,-0.34377 -1.21567,-0.76392 -0.66069,-0.99952 -2.14436,-1.2009 -2.64491,-0.35896 -0.31897,0.53648 0.0523,1.09916 2.08311,3.15686 1.35919,1.3772 3.75433,3.83581 5.32252,5.46358 1.56819,1.62775 4.23325,4.29136 5.92234,5.91912 6.76546,6.5198 8.57166,8.34372 8.42181,8.50439 -0.15607,0.16732 -1.17841,-0.45443 -3.08745,-1.87768 -4.4813,-3.34097 -6.12949,-4.60425 -8.72419,-6.68682 -1.58121,-1.26915 -2.97564,-2.30753 -3.09874,-2.30753 -0.24544,0 -3.83574,-2.81743 -6.8494,-5.37494 -1.97152,-1.67312 -4.03556,-2.48986 -4.45471,-1.7627 -0.27523,0.47746 0.6866,2.65575 1.6706,3.78346 1.1901,1.36392 4.24292,5.06419 5.53456,6.70834 0.682,0.86815 1.69539,2.0587 2.25197,2.64568 0.55657,0.58699 1.01198,1.25289 1.01198,1.47979 0,0.22691 0.24842,0.41255 0.55203,0.41255 0.30365,0 0.55207,0.16158 0.55207,0.35909 0,0.19751 0.99347,1.48492 2.20767,2.86092 1.21424,1.37599 2.20793,2.62809 2.20824,2.78239 3e-4,0.15433 0.3494,0.62906 0.77577,1.05495 0.42637,0.4259 0.65813,0.97751 0.51502,1.2258 -0.17127,0.29709 -0.60473,0.0376 -1.26809,-0.75899 -0.55435,-0.66574 -1.20016,-1.21042 -1.43512,-1.21042 -0.23497,0 -0.42723,-0.17795 -0.42723,-0.39543 0,-0.21748 -1.03511,-1.21204 -2.30022,-2.21011 -1.26514,-0.99808 -2.38306,-1.93256 -2.48426,-2.0766 -0.10132,-0.14406 -1.34018,-1.32479 -2.75322,-2.62384 -1.41307,-1.29907 -2.82082,-2.64474 -3.12833,-2.99037 -0.30752,-0.34566 -1.89933,-1.89943 -3.53736,-3.45283 -2.39843,-2.27453 -3.21227,-2.82439 -4.18033,-2.82439 -1.12691,0 -1.1864,0.0679 -0.95091,1.08516 0.13817,0.59685 0.57017,1.45177 0.96,1.89984 0.38985,0.44806 0.70881,0.98694 0.70881,1.19751 0,0.21058 0.40705,0.90945 0.90455,1.553 2.0902,2.70382 2.7043,3.60476 3.28555,4.82026 0.33732,0.70537 0.76689,1.28249 0.95462,1.28249 0.18772,0 0.61638,0.62152 0.95258,1.38114 0.33618,0.75961 0.73791,1.38112 0.89269,1.38112 0.15481,0 0.48726,0.53273 0.73881,1.18383 0.25154,0.65112 0.59823,1.18383 0.77044,1.18383 0.17221,0 0.96624,1.10984 1.76446,2.4663 0.79824,1.35648 1.70268,2.76518 2.00988,3.13048 2.23554,2.65838 1.82756,3.73264 -0.43313,1.14053 -6.3032,-7.2273 -8.84839,-10.12797 -10.4874,-11.95218 -1.0478,-1.16623 -2.98163,-3.39604 -4.29737,-4.95516 -1.31573,-1.5591 -2.62762,-2.83863 -2.91531,-2.84341 -0.28769,-0.005 -0.82285,-0.29952 -1.18924,-0.65504 -0.52826,-0.51257 -0.77673,-0.54796 -1.20047,-0.17089 -0.46189,0.411 -0.44052,0.57608 0.15769,1.21747 0.38063,0.40809 0.8728,1.46165 1.09369,2.34124 0.22091,0.8796 0.55864,1.59926 0.75054,1.59926 0.19191,0 0.57392,0.57712 0.8489,1.28247 0.275,0.70537 0.77407,1.52621 1.10906,1.82408 0.335,0.29785 0.60905,0.75142 0.60905,1.0079 0,0.2565 0.49686,1.30636 1.10412,2.33304 0.60727,1.02669 1.10412,2.10517 1.10412,2.3966 0,0.29143 0.27107,0.77108 0.60235,1.06589 0.3313,0.29479 0.92105,1.2488 1.31059,2.12001 1.01619,2.27275 1.98827,4.10223 2.58592,4.86679 0.78694,1.00666 2.96239,6.01433 2.72389,6.27006 -0.11517,0.12355 -0.37049,-0.22969 -0.56735,-0.78486 -0.19686,-0.55516 -0.59327,-1.15691 -0.88092,-1.33719 -0.28764,-0.18032 -1.64155,-1.92599 -3.00868,-3.8793 -1.36713,-1.95331 -2.59393,-3.64027 -2.72624,-3.74879 -0.13232,-0.1085 -0.53766,-0.6975 -0.90076,-1.30887 -0.36309,-0.61134 -0.9049,-1.41043 -1.20402,-1.77572 -0.48441,-0.5916 -2.06393,-2.77083 -3.62756,-5.0049 -0.30381,-0.43405 -1.05181,-1.47953 -1.66225,-2.32325 -0.61041,-0.84372 -1.10985,-1.66581 -1.10985,-1.82686 0,-0.16104 -0.75869,-0.95937 -1.68597,-1.77408 -1.52693,-1.34153 -1.7401,-1.42326 -2.25969,-0.86615 -0.51957,0.55708 -0.50471,0.75751 0.15756,2.12431 0.4022,0.83004 0.84389,2.15792 0.98155,2.95087 0.13767,0.7929 0.47291,1.53327 0.74498,1.6452 0.27209,0.11201 0.60854,0.70621 0.74768,1.32059 0.13913,0.61436 0.59201,1.91612 1.00641,2.89278 1.56578,3.69019 2.82676,6.59432 3.94083,9.07599 0.6333,1.41074 1.15137,2.81037 1.15131,3.11031 -9e-5,0.29994 0.30979,1.09901 0.68866,1.77574 0.85662,1.53021 1.29521,3.40076 0.79736,3.40076 -0.20243,0 -0.47292,-0.44811 -0.6011,-0.99574 -0.12822,-0.54765 -0.50401,-1.2145 -0.83512,-1.48189 -0.56643,-0.45743 -1.33559,-1.79661 -2.8832,-5.01995 -0.36471,-0.75963 -0.78736,-1.48042 -0.93921,-1.60176 -0.32318,-0.25828 -2.85223,-4.70812 -2.85223,-5.01849 0,-0.1159 -0.41404,-0.79294 -0.92011,-1.50432 -0.50605,-0.71137 -0.92009,-1.45519 -0.92009,-1.65294 0,-0.19776 -0.41384,-0.8755 -0.91964,-1.50612 -0.50581,-0.63061 -0.91986,-1.3624 -0.9201,-1.62621 -2.5e-4,-0.26381 -0.4973,-1.02462 -1.10456,-1.69069 -0.60726,-0.66606 -1.10412,-1.43577 -1.10412,-1.71042 0,-1.2989 -1.93969,-1.97677 -2.35287,-0.82228 -0.43639,1.21934 -0.21353,3.22905 0.46094,4.15658 0.37638,0.51759 0.80496,1.82895 0.9524,2.91413 0.14744,1.08516 0.57042,2.50575 0.93995,3.15686 0.36954,0.6511 0.84309,2.16048 1.05234,3.35417 0.20926,1.19371 0.72046,2.87381 1.136,3.73358 0.41556,0.85976 0.75555,1.97495 0.75555,2.47819 0,0.50325 0.39146,1.93068 0.86991,3.17209 1.12072,2.90781 1.49808,4.94471 0.87497,4.72288 -0.25121,-0.0894 -0.62209,-0.68081 -0.82415,-1.31418 -0.20209,-0.63338 -0.65752,-1.49583 -1.0121,-1.91657 -0.3546,-0.42072 -0.64471,-1.1399 -0.64471,-1.59815 0,-0.45825 -0.15,-1.00189 -0.33335,-1.20808 -0.6604,-0.74264 -1.87488,-3.3734 -1.87488,-4.06126 0,-0.38654 -0.31746,-1.06815 -0.70545,-1.51468 -0.38801,-0.44655 -0.87691,-1.47769 -1.08648,-2.29144 -0.20956,-0.81375 -0.61644,-1.76929 -0.90418,-2.12345 -0.28774,-0.35413 -0.72258,-1.30978 -0.96629,-2.12366 -0.2437,-0.81389 -0.59126,-1.47979 -0.77233,-1.47979 -0.18106,0 -0.59358,-0.97509 -0.91672,-2.16688 -0.32313,-1.19179 -0.92781,-2.42243 -1.34369,-2.73477 -0.41592,-0.31234 -0.94285,-0.96578 -1.17097,-1.45209 -0.592,-1.26206 -1.25991,-1.35732 -1.73173,-0.24698 -0.32667,0.76873 -0.26438,1.30292 0.31424,2.69461 0.42141,1.01348 0.81357,3.0888 0.94244,4.98737 0.1214,1.78839 0.54358,4.09685 0.93821,5.12992 0.3946,1.03306 0.80312,3.15013 0.90776,4.7046 0.10465,1.55446 0.51914,3.68535 0.92107,4.73531 0.79979,2.08934 1.33417,5.82157 0.93311,6.51732 -0.25072,0.43497 -1.39813,-2.47859 -2.71747,-6.90035 -0.37614,-1.26062 -0.84242,-2.50363 -1.03618,-2.76227 -0.19376,-0.25862 -0.53322,-1.39108 -0.75435,-2.5166 -0.22116,-1.12551 -0.73673,-2.6349 -1.14574,-3.35418 -0.40901,-0.71928 -0.74428,-1.81955 -0.74502,-2.44503 -7e-4,-0.6255 -0.35966,-1.7588 -0.79753,-2.51846 -0.43789,-0.75964 -0.97614,-2.44765 -1.19613,-3.7511 -0.32034,-1.89809 -0.56722,-2.43606 -1.24,-2.70215 -0.70786,-0.27995 -0.90328,-0.16273 -1.24205,0.74497 -0.48633,1.30309 -0.4561,12.91929 0.0403,15.48042 1.08244,5.58492 1.71896,13.27215 1.17226,14.15715 -0.22971,0.37184 -0.42078,-0.24432 -0.60578,-1.95347 -0.14865,-1.37316 -0.56576,-3.23578 -0.92695,-4.13922 -0.36117,-0.90343 -0.77047,-2.86555 -0.90953,-4.36027 -0.13909,-1.49472 -0.55898,-3.36894 -0.93309,-4.16495 -0.37413,-0.79602 -0.79545,-2.57175 -0.93628,-3.94609 -0.14083,-1.37434 -0.58887,-3.38669 -0.99565,-4.47185 -0.40678,-1.08517 -0.87002,-2.93162 -1.02944,-4.10319 -0.15941,-1.17159 -0.53287,-2.39074 -0.82989,-2.70921 -0.47473,-0.50899 -0.62238,-0.44443 -1.22049,0.53363 -0.6281,1.02712 -0.6955,2.4642 -0.87694,18.69086 -0.10806,9.66801 -0.24374,17.40061 -0.30139,17.18358 z m -3.36646,-53.46949 c 0.40483,-0.43409 0.73934,-1.0112 0.74336,-1.28249 0.03,-2.03417 0.85783,-6.10854 1.36251,-6.70648 0.84998,-1.00703 0.87524,-4.68565 0.039,-5.68145 -0.33846,-0.40305 -0.7308,-1.26554 -0.87187,-1.91665 -0.49972,-2.30648 -1.14245,-2.95956 -2.91288,-2.95956 -1.69305,0 -1.68662,-0.008 -2.18031,2.39353 -0.11448,0.55682 -0.56128,1.4447 -0.99284,1.97306 -0.67848,0.83069 -0.76028,1.3076 -0.60463,3.52558 0.099,1.41074 0.44298,3.09298 0.76438,3.7383 0.32143,0.64534 0.6791,1.97714 0.79483,2.95957 0.45002,3.81997 0.57916,4.30082 1.20221,4.47627 1.31159,0.36935 1.94211,0.24598 2.65623,-0.51968 z m 13.85314,-3.67911 c -0.20272,-3.53826 -0.74894,-8.45777 -1.15044,-10.36104 -0.34262,-1.62417 -4.5528,-6.47952 -5.61853,-6.47952 -1.3342,0 -1.63373,1.26484 -1.50168,6.34129 0.11097,4.26681 0.19365,4.74784 0.90813,5.28368 0.43231,0.32421 0.89852,1.07004 1.03601,1.65736 0.13748,0.58733 0.65325,1.58176 1.14617,2.20983 0.4929,0.62808 0.89619,1.42845 0.89619,1.77859 0,0.35012 0.68836,1.30456 1.5297,2.12094 1.25601,1.21874 1.6558,1.41195 2.23451,1.07987 0.63136,-0.36229 0.68553,-0.74062 0.51994,-3.631 z m -27.470577,2.10066 c 0.809686,-0.86813 1.472153,-1.81717 1.472153,-2.10896 0,-0.29181 0.413847,-1.04649 0.91965,-1.6771 0.505815,-0.6306 0.920059,-1.41291 0.920554,-1.73846 3.44e-4,-0.32556 0.407133,-1.09836 0.903624,-1.71736 1.092317,-1.3618 1.440511,-3.5483 1.205269,-7.56845 -0.28307,-4.83728 -1.245623,-5.19925 -4.61023,-1.73362 -1.704534,1.75572 -2.090642,2.46021 -3.075171,5.61097 -1.021368,3.26872 -1.112889,3.97084 -0.985962,7.56404 0.197315,5.58605 0.698129,6.10519 3.250113,3.36894 z m -13.485117,-4.31961 c 0.503955,-0.20544 2.833369,-2.41005 5.176497,-4.89912 l 4.2602,-4.52561 v -1.95834 c 0,-1.07709 0.239754,-2.57354 0.532773,-3.32548 0.793996,-2.03751 0.406385,-3.06994 -1.152569,-3.06994 -0.950912,0 -1.795545,0.447 -3.361437,1.77889 -1.15027,0.97839 -2.257014,1.95319 -2.459435,2.16625 -1.675636,1.76364 -2.055471,2.42046 -2.338235,4.04324 -0.177587,1.01919 -0.5898,2.28987 -0.916027,2.8237 -0.326241,0.53386 -0.699345,1.73782 -0.829121,2.6755 -0.129777,0.93768 -0.47743,2.11876 -0.77254,2.62463 -0.982763,1.68457 -0.107816,2.46842 1.859894,1.66628 z m 53.692584,0.14412 c 0.11768,-0.12617 -0.0994,-0.96965 -0.48264,-1.8744 -0.38312,-0.90475 -0.70023,-2.00276 -0.70466,-2.44004 -0.004,-0.43729 -0.34919,-1.4774 -0.76608,-2.3114 -0.41688,-0.83397 -0.83479,-2.15958 -0.92867,-2.94579 -0.18388,-1.53989 -1.72296,-4.22175 -2.76641,-4.8205 -0.35314,-0.20265 -0.9154,-0.6615 -1.24947,-1.01969 -1.36421,-1.46268 -3.22031,-2.51079 -4.44641,-2.51079 -1.60331,0 -1.94207,0.78483 -1.12844,2.61421 0.33235,0.74727 0.60427,2.05137 0.60427,2.89801 0,2.52483 0.5444,3.41774 4.95886,8.13338 3.70398,3.95669 4.36969,4.50642 5.45715,4.50642 0.6812,0 1.33483,-0.10323 1.4525,-0.22941 z m -62.140758,-9.04391 c 0.745707,-0.54258 1.488434,-0.98652 1.650487,-0.98652 0.16206,0 0.580944,-0.33918 0.930838,-0.75373 0.349908,-0.41456 1.033751,-0.8607 1.51966,-0.99149 1.984087,-0.53391 6.055089,-4.35994 6.055089,-5.69071 0,-0.32132 0.432046,-1.37467 0.960111,-2.34081 0.796625,-1.45746 0.891978,-1.91695 0.559944,-2.69827 -0.480605,-1.13098 -1.218473,-1.1664 -3.176232,-0.15247 -0.809683,0.41933 -1.822453,0.76847 -2.2506,0.77584 -0.428156,0.008 -1.199554,0.36853 -1.714233,0.80258 -0.514666,0.43407 -1.123308,0.78924 -1.352525,0.78924 -0.639163,0 -3.321766,3.26349 -3.326953,4.04734 -0.0025,0.38124 -0.418636,1.07917 -0.924684,1.55095 -0.506061,0.47177 -0.920096,1.01107 -0.920096,1.19844 0,0.18736 -0.419221,0.82124 -0.931599,1.40862 -1.024147,1.17405 -1.471825,2.51834 -1.143856,3.43473 0.335118,0.93633 2.528669,0.72387 4.064649,-0.39374 z m 71.772388,0.74701 c 0.72043,-0.29641 0.77936,-2.3596 0.08,-2.79909 -0.27622,-0.17357 -0.77828,-0.89467 -1.11569,-1.60244 -0.33742,-0.70779 -0.93953,-1.5052 -1.338,-1.77201 -0.39848,-0.26683 -0.7245,-0.67836 -0.7245,-0.91446 0,-0.23616 -0.49001,-1.22252 -1.08889,-2.19197 -1.25845,-2.03706 -3.43602,-3.69554 -5.6471,-4.3009 -0.84969,-0.23263 -2.08561,-0.72272 -2.74651,-1.08909 -0.9263,-0.51346 -1.34793,-0.56456 -1.84018,-0.22289 -0.79694,0.55314 -0.76068,2.67196 0.0623,3.64711 0.32296,0.38262 0.58718,0.96198 0.58718,1.28751 0,1.08654 2.14472,4.07198 3.47274,4.83403 0.72146,0.41396 1.31175,0.90232 1.31175,1.08517 0,0.18284 0.20703,0.33937 0.46006,0.34781 0.25302,0.009 1.37094,0.62962 2.48425,1.38037 3.6055,2.43132 4.71677,2.85631 6.04252,2.31085 z m -36.73734,-9.07876 c 0.68846,-0.35028 1.25174,-0.883 1.25174,-1.18383 0,-0.83057 1.02302,-0.65339 1.28216,0.2221 0.32304,1.09129 1.53132,1.38668 2.60027,0.63572 0.49613,-0.34855 0.90207,-0.79454 0.90207,-0.99107 0,-0.19652 0.26177,-0.638 0.58171,-0.98104 0.53028,-0.56856 0.66488,-0.55361 1.52181,0.16912 0.51703,0.43606 1.15433,0.79284 1.4162,0.79284 0.80403,0 1.63281,-1.1827 1.63281,-2.33007 0,-1.52873 0.36753,-1.75412 1.31087,-0.8039 0.59764,0.60198 1.19067,0.78612 2.23553,0.69416 1.35814,-0.11953 1.43041,-0.19616 1.60616,-1.7036 0.16859,-1.44618 0.27103,-1.57188 1.22244,-1.50025 0.57114,0.0429 1.45349,-0.0911 1.96079,-0.29785 0.79338,-0.32342 0.90549,-0.58219 0.80176,-1.85044 -0.11852,-1.44907 -0.0952,-1.47815 1.35155,-1.68905 2.63257,-0.38375 3.01078,-1.13183 1.47216,-2.9119 -1.35494,-1.56754 -1.2025,-2.20763 0.52577,-2.20763 0.79522,0 1.69137,-0.26324 1.99145,-0.58498 0.6854,-0.7349 0.38638,-2.07534 -0.53275,-2.38812 -1.00846,-0.34318 -0.85431,-0.92232 0.31577,-1.18628 1.72857,-0.38996 2.11622,-0.7918 2.11622,-2.19366 0,-1.13445 -0.19304,-1.43477 -1.28813,-2.004 l -1.28814,-0.66958 1.18786,-0.26955 c 0.65334,-0.14826 1.37186,-0.50725 1.59673,-0.79775 0.63553,-0.82105 0.0634,-2.75863 -0.96248,-3.25982 -0.97443,-0.47604 -1.21864,-1.24679 -0.39501,-1.24679 1.60175,0 1.64941,-2.957708 0.0545,-3.38688 -1.52276,-0.409785 -1.90425,-1.248754 -0.98527,-2.16673 0.43547,-0.434984 0.79175,-1.127156 0.79175,-1.538142 0,-0.753468 -0.30303,-0.923536 -2.48426,-1.39424 -1.40251,-0.302664 -1.46609,-0.625066 -0.42191,-2.139375 1.19784,-1.737131 0.70497,-2.72126 -1.43692,-2.869198 -1.71754,-0.118605 -1.72873,-0.128512 -1.61099,-1.425875 0.16381,-1.805351 -0.4548,-2.442366 -2.37183,-2.442366 -1.5848,0 -1.61111,-0.0218 -1.61111,-1.332807 0,-2.095327 -0.80951,-2.529397 -2.79163,-1.496888 -2.16522,1.127883 -2.36093,1.090949 -2.36093,-0.445553 0,-2.213109 -1.50134,-2.933524 -3.2994,-1.583196 -0.72497,0.544461 -0.91786,0.566566 -1.05635,0.121114 -0.32304,-1.039071 -1.8718,-2.365592 -2.76193,-2.365592 -0.55983,0 -1.13182,0.388357 -1.5288,1.037971 l -0.63432,1.03797 -0.78949,-1.061592 c -0.53476,-0.719086 -1.15785,-1.072825 -1.93125,-1.096408 -1.43868,-0.04384 -1.93338,0.285406 -2.40413,1.600176 l -0.37483,1.04685 -0.51148,-1.038396 c -0.97529,-1.980091 -3.086132,-1.827794 -4.02356,0.290316 -0.688376,1.555365 -0.904947,1.623082 -1.761259,0.550771 -1.214766,-1.52116 -2.672649,-0.828074 -2.905126,1.381127 -0.155909,1.481483 -1.268607,1.752648 -2.498582,0.608885 -1.608969,-1.496201 -2.808017,-0.878749 -3.024491,1.557431 -0.120071,1.351342 -0.147358,1.371933 -1.659271,1.252813 -1.798429,-0.141714 -2.347403,0.55171 -2.057351,2.598658 l 0.181722,1.282483 h -1.65855 c -2.244831,0 -2.822914,1.462383 -1.364127,3.450829 0.88421,1.205245 0.827747,1.2975 -0.899581,1.469621 -2.307499,0.229949 -3.046967,1.449798 -1.681837,2.774427 0.979293,0.950237 0.928481,1.322235 -0.246037,1.801029 -1.986039,0.8096 -2.601059,2.890687 -1.042105,3.526187 1.170278,0.47707 1.155923,0.63099 -0.184011,1.97305 -1.519323,1.52171 -1.515805,3.08833 0.0082,3.41501 1.503857,0.32248 1.702074,0.82655 0.546956,1.39085 -0.809055,0.39524 -0.94182,0.68673 -0.84885,1.86367 0.106651,1.34978 0.229052,1.48367 2.441119,2.66955 0.06751,0.0362 -0.22235,0.43571 -0.644059,0.88787 -0.421709,0.45215 -0.766757,1.05996 -0.766757,1.35068 0,0.68027 1.566851,1.44447 2.961629,1.44447 0.830874,0 1.086795,0.18058 1.086795,0.76684 0,0.42176 -0.299959,0.99888 -0.666595,1.28247 -1.789573,1.38433 -1.221241,2.97431 1.12831,3.15665 1.492361,0.11581 1.56781,0.18325 1.680755,1.50239 0.152668,1.78322 0.515462,2.14186 2.182535,2.1575 1.080089,0.01 1.391449,0.17886 1.480061,0.80206 0.344275,2.42135 0.438145,2.56496 1.676395,2.56496 0.665926,0 1.532266,-0.2607 1.925192,-0.57936 1.14761,-0.93068 2.002545,-0.75649 2.002545,0.40799 0,2.34749 1.582042,3.33217 2.834259,1.76411 0.462169,-0.57875 0.740776,-0.6664 1.100512,-0.34629 0.264926,0.23575 0.48168,0.667 0.48168,0.95834 0,1.42765 3.047384,1.795 4.099604,0.49421 0.76484,-0.94552 0.73134,-0.95946 1.33858,0.55651 0.49938,1.24677 1.11986,1.3434 2.87909,0.44831 z m 46.15372,-0.74592 c 0.37619,-0.48599 0.30096,-0.84377 -0.41497,-1.97365 -0.48095,-0.75902 -1.13234,-1.46965 -1.44753,-1.57917 -0.31518,-0.10963 -1.30889,-0.99357 -2.20822,-1.96453 -0.89934,-0.97095 -1.7307,-1.76895 -1.84743,-1.77332 -0.11681,-0.004 -1.01314,-0.79627 -1.99197,-1.7598 -1.95528,-1.92475 -2.50851,-2.09186 -7.53759,-2.27686 -3.08627,-0.11344 -3.12058,-0.10418 -3.46548,0.94026 -0.31245,0.94624 -0.18258,1.22065 1.26066,2.6636 0.88494,0.88478 1.74055,1.6087 1.90132,1.6087 0.16076,0 0.2923,0.26384 0.2923,0.58632 0,0.82175 2.47438,2.46191 4.22872,2.803 0.80763,0.15704 2.13258,0.60899 2.94432,1.00438 0.81173,0.39538 2.13834,0.72881 2.94802,0.74094 0.80967,0.0125 2.13462,0.36516 2.9443,0.78449 1.79669,0.93051 1.82305,0.93268 2.39355,0.19564 z m -91.928408,-0.2636 c 0.08166,-0.26263 1.16869,-0.54115 2.514923,-0.64433 1.471557,-0.11289 2.680498,-0.44139 3.186591,-0.86606 0.448508,-0.37636 1.825075,-0.80675 3.059037,-0.95645 2.208106,-0.26785 2.292222,-0.32384 5.320232,-3.54135 2.886275,-3.06692 3.049238,-3.32802 2.63359,-4.2197 -0.432748,-0.92838 -0.532716,-0.94717 -4.295502,-0.80811 -4.105143,0.15175 -4.544549,0.28638 -6.140874,1.88149 -0.563156,0.56272 -2.389158,2.18541 -4.057789,3.606 -2.919448,2.48542 -4.749473,4.88337 -4.309433,5.64678 0.30263,0.52501 1.919078,0.44899 2.089225,-0.0985 z m 7.580788,-12.83581 c 0.946949,-0.58603 1.847207,-1.283 2.000581,-1.54883 0.153383,-0.26584 0.83161,-0.67893 1.507183,-0.91799 1.381272,-0.48877 2.205559,-1.80158 2.019141,-3.21578 -0.119216,-0.90435 -0.289703,-0.95967 -3.805187,-1.23478 -3.735007,-0.29228 -7.176749,-0.0738 -7.176749,0.45566 0,0.16 -0.372638,0.48416 -0.828095,0.72037 -2.466034,1.27891 -5.060761,2.46616 -5.389781,2.46616 -0.206159,0 -1.076713,0.69488 -1.93456,1.54418 -1.34247,1.32908 -1.492208,1.6314 -1.075043,2.17035 0.407729,0.52675 1.475111,0.62617 6.722741,0.62617 6.106802,0 6.274298,-0.0224 7.959769,-1.06551 z m 89.85838,0.48459 c 0.52922,-0.68369 -0.0523,-1.50375 -1.38878,-1.95857 -0.44601,-0.15178 -0.81093,-0.43044 -0.81093,-0.61925 0,-0.31666 -0.95645,-0.84826 -6.65984,-3.70156 -2.55499,-1.27823 -4.43573,-1.53404 -8.39092,-1.14134 -2.32117,0.23048 -3.18961,0.47746 -3.49199,0.9931 -0.53327,0.90934 0.42039,2.66383 1.85391,3.41081 0.57597,0.30011 1.32381,0.80313 1.6619,1.11783 0.33808,0.31468 1.33178,0.99353 2.20824,1.50853 1.50279,0.88306 1.96296,0.93738 8.08115,0.95387 5.27761,0.0143 6.57149,-0.0908 6.93726,-0.56342 z M 68.3728,108.54411 c 0.748673,-0.43023 1.990441,-0.89013 2.759486,-1.02197 0.769046,-0.13186 1.699091,-0.47559 2.066764,-0.76386 0.565552,-0.44338 0.600057,-0.66585 0.224092,-1.44433 -0.82728,-1.71293 -1.533737,-2.26581 -3.244522,-2.53918 -0.938185,-0.14993 -2.097206,-0.5465 -2.575591,-0.88128 -1.092997,-0.76488 -3.982038,-0.74548 -5.412982,0.0363 -0.592893,0.32394 -2.237308,0.71038 -3.654253,0.85876 -3.755032,0.39321 -4.812352,0.84012 -5.363629,2.26711 -0.417563,1.08087 -0.392954,1.28091 0.216334,1.7586 0.378127,0.29645 0.945675,0.54812 1.261216,0.55926 1.846657,0.0653 5.565709,0.77475 6.83038,1.3031 2.111798,0.88228 5.231121,0.82228 6.892705,-0.13257 z m 82.54061,0.13321 c 0.80968,-0.33792 2.7971,-0.78436 4.41647,-0.9921 1.61938,-0.20773 3.31865,-0.63905 3.77616,-0.95847 0.78487,-0.54795 0.80062,-0.64559 0.27866,-1.72782 -0.74906,-1.55313 -0.82939,-1.58802 -4.62367,-2.00891 -1.8297,-0.20297 -3.77517,-0.61102 -4.32325,-0.90677 -1.94516,-1.04964 -3.6826,-1.06669 -6.0922,-0.0597 -1.2458,0.52059 -2.67913,1.03721 -3.18518,1.14803 -0.56679,0.12413 -1.18772,0.73452 -1.61705,1.58965 -0.8969,1.7864 -0.44717,2.43079 1.94242,2.78318 0.96829,0.14278 2.24348,0.60098 2.8338,1.01822 1.32987,0.93996 4.48499,0.99488 6.59384,0.11473 z M 74.591738,97.99205 c 0.344171,-0.369881 0.350058,-0.715404 0.02522,-1.479778 -0.233097,-0.548481 -0.585432,-0.99723 -0.782984,-0.99723 -0.197561,0 -0.822182,-0.456325 -1.388037,-1.014048 -1.893849,-1.866634 -2.124949,-2.023337 -3.946692,-2.676433 -1.189354,-0.42638 -3.04851,-0.650217 -5.400491,-0.650217 -1.972709,0 -4.405687,-0.202681 -5.406627,-0.450414 -2.049593,-0.507249 -3.679942,-0.223635 -4.009628,0.697546 -0.304269,0.850155 2.245087,3.225151 3.796997,3.53731 0.667735,0.13431 1.398818,0.482901 1.624648,0.774644 0.225821,0.291756 1.018404,0.739564 1.761295,0.995139 0.742893,0.25557 1.599126,0.685431 1.902763,0.955221 0.986536,0.876594 1.58796,0.957211 6.515332,0.873437 3.246567,-0.05523 5.008175,-0.24276 5.308179,-0.565177 z m 75.033542,-0.306657 c 0.68592,-0.542582 1.60364,-0.986521 2.0394,-0.986521 0.43576,0 1.17015,-0.351384 1.632,-0.780858 0.46185,-0.429472 1.3969,-0.892936 2.07793,-1.029918 1.30341,-0.262183 3.60422,-2.631032 3.34993,-3.448997 -0.26146,-0.841001 -2.45363,-1.22367 -4.17768,-0.729257 -0.89089,0.255471 -3.14938,0.47233 -5.01887,0.481912 -3.94931,0.02028 -6.50923,0.639832 -7.73193,1.87143 -0.47692,0.480385 -1.01419,0.873425 -1.19392,0.873425 -0.60082,0 -2.75409,2.513379 -2.75409,3.214668 0,1.200749 1.15765,1.4963 5.90912,1.508636 4.36003,0.01129 4.69143,-0.04371 5.86811,-0.97452 z M 77.643683,90.934816 c 1.134347,-0.466721 0.705372,-2.602779 -0.905737,-4.510078 -0.818354,-0.968797 -1.748294,-2.160981 -2.066544,-2.649318 -0.318251,-0.488327 -0.796193,-0.887867 -1.062075,-0.887867 -0.265898,0 -0.744576,-0.27998 -1.063737,-0.622184 -0.319154,-0.342192 -1.585703,-0.774546 -2.81454,-0.960783 -1.22885,-0.186236 -2.637294,-0.621748 -3.12987,-0.967796 -0.765998,-0.538148 -6.670459,-1.652116 -6.969598,-1.314935 -0.057,0.06424 -0.161327,0.55424 -0.231717,1.088757 -0.10817,0.821123 0.378137,1.383856 3.135652,3.628624 1.795004,1.461243 3.501967,3.021619 3.793259,3.467512 0.291291,0.445893 0.708983,0.810728 0.928212,0.810728 0.219243,0 0.589974,0.280584 0.823855,0.623538 0.282784,0.414645 1.467677,0.758465 3.536942,1.02631 2.529605,0.327426 3.894408,0.701429 5.381829,1.474833 0.034,0.01779 0.323879,-0.07565 0.644069,-0.207341 z m 59.334367,-0.335677 c 0.42125,-0.316367 1.90725,-0.695505 3.30221,-0.842517 2.9944,-0.315599 3.58341,-0.584837 5.64949,-2.582499 0.36749,-0.355318 0.93041,-0.803377 1.2509,-0.995688 0.3205,-0.192312 1.29148,-1.071698 2.15774,-1.954204 0.86626,-0.882505 1.9342,-1.809159 2.37321,-2.059246 0.43897,-0.250086 0.9067,-0.984565 1.03936,-1.632176 0.28809,-1.406338 -0.0646,-2.269028 -0.66456,-1.625727 -0.22006,0.235948 -1.23892,0.428998 -2.26416,0.428998 -1.1496,0 -2.38102,0.297077 -3.21288,0.77512 -0.74186,0.426317 -2.21962,0.88188 -3.28391,1.012359 -1.06427,0.130466 -2.35945,0.557447 -2.87815,0.948835 -0.5187,0.391384 -1.27432,0.833446 -1.67915,0.982336 -1.17371,0.43169 -4.60048,5.104034 -4.60048,6.272695 0,1.619502 1.46473,2.282291 2.81038,1.271714 z M 84.04571,82.791178 c 0.06705,-0.378548 -0.200705,-1.17764 -0.595,-1.77573 -0.394282,-0.598103 -0.83057,-1.65055 -0.969524,-2.338765 -0.13895,-0.688214 -0.647673,-1.708324 -1.130495,-2.266912 -0.482825,-0.558587 -1.010799,-1.238523 -1.173272,-1.510965 -0.162468,-0.272443 -0.944048,-0.850494 -1.736844,-1.284564 -3.119332,-1.707897 -3.772901,-2.128892 -4.238202,-2.730012 -0.265709,-0.343294 -0.771745,-0.624165 -1.124503,-0.624165 -0.352756,0 -1.062471,-0.355141 -1.57715,-0.789211 -1.079662,-0.910585 -2.567545,-1.029766 -3.168186,-0.253808 -0.620451,0.801573 -0.07195,2.978011 0.92736,3.680089 0.478001,0.335816 0.869104,0.824479 0.869104,1.08594 0,0.261444 0.414035,0.861363 0.920096,1.33313 0.506048,0.471782 0.920093,1.117663 0.920093,1.435307 0,0.317631 0.914651,1.550392 2.032539,2.739469 1.549259,1.647882 2.507432,2.309958 4.029698,2.784443 1.09843,0.34238 2.103387,0.80681 2.233231,1.032085 0.129858,0.225263 1.006288,0.356118 1.947631,0.290765 1.281261,-0.08892 1.74217,-0.291842 1.833424,-0.807096 z m 48.61586,0.337521 c 0.23333,-0.301438 1.14138,-0.741681 2.01788,-0.978318 0.8765,-0.236647 1.80266,-0.700312 2.05814,-1.030367 0.2555,-0.330068 0.68684,-0.600118 0.95856,-0.600118 0.27173,0 0.66936,-0.351221 0.88362,-0.780495 0.21428,-0.429272 0.79978,-1.220287 1.30108,-1.757808 0.50134,-0.537508 0.9115,-1.269271 0.9115,-1.62614 0,-0.356858 0.45546,-1.145203 1.0121,-1.751885 2.75011,-2.997233 3.45293,-5.241551 1.84156,-5.88067 -0.61717,-0.244776 -1.38692,-0.01804 -3.03632,0.894354 -1.21527,0.672244 -2.33167,1.427227 -2.4809,1.677714 -0.14922,0.2505 -0.7289,0.57487 -1.28813,0.720816 -2.37553,0.61997 -5.76802,3.732065 -6.44926,5.91624 -0.20702,0.663716 -0.56933,1.473104 -0.80516,1.798662 -0.85562,1.181162 -1.237,2.600187 -0.88179,3.280786 0.43687,0.836966 3.33359,0.922783 3.95712,0.117225 z m -42.132733,-5.20195 c 0.699058,-0.74952 0.696848,-0.557861 0.02626,-2.278597 -0.303635,-0.779153 -0.552056,-2.387184 -0.552056,-3.573405 0,-2.147366 -0.01054,-2.167594 -2.452018,-4.649323 -1.348602,-1.370919 -3.256318,-3.346514 -4.239363,-4.390207 -0.983033,-1.043695 -2.347459,-2.148544 -3.032051,-2.455242 -1.094541,-0.490354 -1.301762,-0.483916 -1.717595,0.05337 -0.374249,0.483504 -0.377754,0.673975 -0.01673,0.91318 0.250865,0.166235 0.600149,1.3948 0.776182,2.730124 0.187775,1.42431 0.636003,2.8585 1.084377,3.469678 0.473064,0.644818 0.764304,1.620616 0.764304,2.560797 0,1.751121 0.708167,2.722009 4.41646,6.054897 2.524742,2.269153 3.883926,2.699492 4.942233,1.564795 z m 35.706993,-1.155636 c 1.06621,-0.976652 2.06121,-1.775732 2.21108,-1.775732 0.14987,0 0.83205,-0.665909 1.51595,-1.479793 0.8551,-1.017643 1.24609,-1.872282 1.25196,-2.736575 0.0107,-1.472792 0.54048,-3.118695 1.25048,-3.879964 0.41564,-0.445643 1.48832,-6.076026 1.21369,-6.370488 -0.0462,-0.04959 -0.65905,0.05561 -1.36183,0.233745 -0.92115,0.233453 -2.42869,1.52821 -5.40082,4.638515 l -4.12302,4.314673 -0.25194,2.636555 c -0.13856,1.45011 -0.47764,2.83741 -0.75348,3.082875 -0.70718,0.62925 -0.62343,2.207396 0.1425,2.685714 1.24969,0.780419 2.36016,0.432342 4.30543,-1.349525 z m -9.28159,-3.058215 c 3.74002,-4.267144 3.61543,-4.002677 4.04357,-8.582742 0.69736,-7.459405 0.72147,-8.848109 0.16764,-9.650971 -0.52286,-0.757951 -0.56087,-0.752276 -2.05302,0.306459 -0.97182,0.689555 -1.72726,1.633365 -2.09403,2.616193 -0.31556,0.84562 -0.79371,1.627992 -1.06253,1.738582 -0.26882,0.11059 -0.60193,0.753654 -0.74027,1.428983 -0.13836,0.675338 -0.60941,1.585373 -1.04681,2.022297 -0.73612,0.735306 -0.79529,1.175476 -0.79529,5.916127 0,4.123275 0.10759,5.194674 0.55207,5.495897 0.97244,0.659107 1.52662,0.422911 3.02867,-1.290825 z m -17.930189,0.591913 c 0.146757,-0.379813 0.342527,-2.404943 0.435066,-4.500295 0.131936,-2.987865 0.04108,-4.07324 -0.420923,-5.031254 -0.324028,-0.671846 -0.744121,-1.221542 -0.933546,-1.221542 -0.189423,0 -0.522786,-0.710294 -0.740808,-1.578432 -0.218033,-0.86814 -0.559206,-1.578448 -0.758159,-1.578448 -0.198953,0 -0.556644,-0.488325 -0.794843,-1.085175 -0.576887,-1.445475 -2.899597,-4.029768 -3.629361,-4.038096 -1.112928,-0.01277 -1.500879,1.63041 -1.355521,5.741136 0.07627,2.156084 0.322355,4.452867 0.546943,5.103971 0.22458,0.651105 0.613023,1.892433 0.863205,2.758505 0.250191,0.866074 0.927071,2.109094 1.504182,2.762265 0.577113,0.653171 1.483706,1.675912 2.014645,2.27276 1.121948,1.261193 2.853532,1.470212 3.26912,0.394605 z m 8.635889,-0.882729 c 0.39461,-0.226428 0.78064,-1.036279 0.92219,-1.934577 0.1339,-0.849831 0.64568,-2.129658 1.13727,-2.844074 1.09198,-1.58695 1.13584,-3.238503 0.14089,-5.304236 -0.41542,-0.862478 -0.92479,-3.066793 -1.13633,-4.917395 -0.21088,-1.844791 -0.51427,-3.501165 -0.67423,-3.680813 -0.15995,-0.179638 -0.89737,-0.473298 -1.63869,-0.652559 -1.16465,-0.281649 -1.41503,-0.210423 -1.84192,0.523932 -0.27173,0.467437 -0.58899,2.166317 -0.70497,3.77531 -0.116,1.608982 -0.37354,3.033191 -0.57231,3.164897 -1.25995,0.834902 -1.54927,5.680343 -0.43024,7.205637 0.39229,0.534729 0.81922,1.49094 0.94873,2.124924 0.44868,2.196425 0.97479,2.928424 2.10477,2.928424 0.58638,0 1.37156,-0.175267 1.74484,-0.38947 z M 90.248422,205.34786 c -0.386864,-0.41479 -0.285857,-3.6096 0.122687,-3.88032 0.228495,-0.15142 0.368035,0.58782 0.368035,1.94977 0,2.21763 -0.04778,2.40549 -0.490722,1.93055 z M 52.468789,190.54044 c -0.0025,-0.36702 0.159983,-0.77703 0.362402,-0.91116 0.465786,-0.30867 0.465786,0.21373 0,0.98652 -0.307453,0.5101 -0.357542,0.49968 -0.362402,-0.0754 z M 174.28385,178.35963 c 0,-0.22986 0.16562,-0.30815 0.36805,-0.17402 0.20242,0.13415 0.36803,0.3222 0.36803,0.41791 0,0.0957 -0.16561,0.17401 -0.36803,0.17401 -0.20243,0 -0.36805,-0.18806 -0.36805,-0.4179 z M 29.644779,171.27995 c 0,-0.21703 0.165614,-0.3946 0.368035,-0.3946 0.202422,0 0.368036,0.17757 0.368036,0.3946 0,0.21704 -0.165614,0.39462 -0.368036,0.39462 -0.202421,0 -0.368035,-0.17758 -0.368035,-0.39462 z m -17.66584,-23.67653 c 0.72718,-0.50388 1.946615,-0.50388 1.656163,0 -0.125103,0.21704 -0.673132,0.39189 -1.217843,0.38858 -0.77463,-0.005 -0.870122,-0.0894 -0.43832,-0.38858 z m 186.894481,0.12506 c 0.26567,-0.11389 0.5831,-0.0998 0.7054,0.0312 0.1223,0.13113 -0.0951,0.2244 -0.48304,0.20725 -0.42875,-0.0189 -0.51595,-0.1125 -0.22236,-0.2384 z M 8.6665871,138.52743 c 0.3036374,-0.21041 0.9661055,-0.37278 1.4721519,-0.36084 0.84266,0.0198 0.85815,0.0502 0.184024,0.36084 -0.4048419,0.18651 -1.0673101,0.3489 -1.4721523,0.36083 -0.6075318,0.0179 -0.6396667,-0.0452 -0.1840236,-0.36083 z m -3.9494022,-8.95486 c 0.3580832,-0.1 0.8549378,-0.0935 1.1041056,0.0145 0.2491808,0.10812 -0.043806,0.18994 -0.6510663,0.18192 -0.6072639,-0.008 -0.8111333,-0.0966 -0.4530393,-0.19655 z M 204.463,129.4514 c 0,-0.47119 1.00147,-0.47119 2.02422,0 0.59046,0.27206 0.46305,0.34464 -0.64408,0.36688 -0.75908,0.0153 -1.38014,-0.14984 -1.38014,-0.36688 z M 3.445048,80.644952 c 0.265674,-0.113964 0.5831072,-0.09994 0.7054079,0.03118 0.1222887,0.131117 -0.095088,0.224386 -0.4830587,0.207253 C 3.2386554,80.864465 3.1514443,80.770913 3.445048,80.644988 Z m 4.7844921,-8.681398 c 0.2656858,-0.113964 0.5831192,-0.09994 0.7054079,0.03118 0.1223004,0.131117 -0.095088,0.224385 -0.4830469,0.207253 -0.4287417,-0.0189 -0.5159529,-0.112471 -0.222361,-0.238402 z m 194.3242599,0 c 0.26568,-0.113964 0.5831,-0.09994 0.70542,0.03118 0.12228,0.131117 -0.095,0.224385 -0.48307,0.207253 -0.42875,-0.0189 -0.51595,-0.112471 -0.22235,-0.238402 z m -14.65253,-25.38002 c 0,-0.217035 0.17539,-0.394605 0.38976,-0.394605 0.21438,0 0.2874,0.17757 0.1623,0.394605 -0.12511,0.217035 -0.3005,0.394605 -0.38977,0.394605 -0.0892,0 -0.16229,-0.17757 -0.16229,-0.394605 z M 52.670838,20.655021 c -0.199735,-0.562408 -0.157463,-0.607721 0.20603,-0.220906 0.251516,0.267671 0.364601,0.586091 0.251283,0.707577 -0.113307,0.12149 -0.319104,-0.09757 -0.457313,-0.486671 z m 9.403123,-2.821657 c -0.336695,-0.655174 -0.362705,-1.0539 -0.08796,-1.34846 0.472523,-0.506635 0.917024,0.479758 0.705258,1.565083 -0.121894,0.624691 -0.198813,0.597701 -0.617286,-0.216623 z m 18.71904,-5.803806 c -0.420925,-1.187036 -0.45584,-1.909216 -0.11027,-2.2797873 0.21693,-0.2326026 1.202857,2.1927923 1.217892,2.9960433 0.01345,0.716757 -0.781895,0.202495 -1.107681,-0.716256 z m 9.455421,-3.1969474 c -0.364006,-0.3902847 -0.286663,-2.2146515 0.122687,-2.8937984 0.258035,-0.4281057 0.358317,-0.073192 0.362407,1.2824748 0.0058,1.9031039 -0.04766,2.0803489 -0.485094,1.6113236 z"/>
  </g>
</svg>