<svg height="512" viewBox="0 0 128 128" width="512" xmlns="http://www.w3.org/2000/svg"><g><text fill="#24253a" font-family="MyriadPro-Regular, Myriad Pro" font-size="40" letter-spacing=".002em" transform="translate(56.724 -966.265)">6<tspan x="-10.3" y="228">16</tspan><tspan x="-10.3" y="456">26</tspan><tspan x="-10.3" y="684">36</tspan><tspan x="-10.3" y="912">46</tspan><tspan x="-10.3" y="1140">56</tspan><tspan x="-10.3" y="1368">66</tspan><tspan x="-10.3" y="1596">76</tspan><tspan x="-10.3" y="1824">86</tspan><tspan x="-10.3" y="2052">96</tspan><tspan x="-20.599" y="2280">106</tspan><tspan x="-20.599" y="2508">116</tspan><tspan x="-20.599" y="2736">126</tspan><tspan x="-20.599" y="2964">136</tspan><tspan x="-20.599" y="3192">146</tspan><tspan x="-20.599" y="3420">156</tspan><tspan x="-20.599" y="3648">166</tspan><tspan x="-20.599" y="3876">176</tspan><tspan x="-20.599" y="4104">186</tspan><tspan x="-20.599" y="4332">196</tspan><tspan x="-20.599" y="4560">206</tspan><tspan x="-20.599" y="4788">216</tspan><tspan x="-20.599" y="5016">226</tspan><tspan x="-20.599" y="5244">236</tspan><tspan x="-20.599" y="5472">246</tspan></text></g><g id="Circle_Grid" data-name="Circle Grid"><circle cx="64" cy="64" fill="#ef5261" r="64"/></g><g id="icon"><path d="m82.762 94.089h-37.524a174.431 174.431 0 0 1 0-26.525v-35.073h37.524v35.073a200.9 200.9 0 0 1 0 26.525z" fill="#eeefee"/><path d="m64 77.583a5.577 5.577 0 0 0 -5.577 5.577v11.929h11.154v-11.929a5.577 5.577 0 0 0 -5.577-5.577z" fill="#62667c"/><path d="m48.361 47.32h7.658v7.658h-7.658z" fill="#69b0ee"/><g fill="#eeefee" opacity=".3"><path d="m56.019 47.32v.478l-6.023 7.18h-1.635v-.105l6.348-7.553z"/><path d="m56.019 48.879v1.013l-4.264 5.086h-.86z"/></g><path d="m60.23 47.32h7.658v7.658h-7.658z" fill="#69b0ee"/><g fill="#eeefee" opacity=".3"><path d="m67.888 47.32v.478l-6.023 7.18h-1.635v-.105l6.348-7.553z"/><path d="m67.888 48.879v1.013l-4.264 5.086h-.86z"/></g><path d="m72.099 47.32h7.658v7.658h-7.658z" fill="#69b0ee"/><g fill="#eeefee" opacity=".3"><path d="m79.757 47.32v.478l-6.023 7.18h-1.635v-.105l6.348-7.553z"/><path d="m79.757 48.879v1.013l-4.264 5.086h-.861z"/></g><path d="m48.361 36.369h7.658v7.658h-7.658z" fill="#69b0ee"/><g fill="#eeefee" opacity=".3"><path d="m56.019 36.369v.478l-6.023 7.18h-1.635v-.105l6.348-7.553z"/><path d="m56.019 37.928v1.013l-4.264 5.086h-.86z"/></g><path d="m60.23 36.369h7.658v7.658h-7.658z" fill="#69b0ee"/><g fill="#eeefee" opacity=".3"><path d="m67.888 36.369v.478l-6.023 7.18h-1.635v-.105l6.348-7.553z"/><path d="m67.888 37.928v1.013l-4.264 5.086h-.86z"/></g><path d="m72.099 36.369h7.658v7.658h-7.658z" fill="#69b0ee"/><g fill="#eeefee" opacity=".3"><path d="m79.757 36.369v.478l-6.023 7.18h-1.635v-.105l6.348-7.553z"/><path d="m79.757 37.928v1.013l-4.264 5.086h-.861z"/></g><path d="m48.361 58.272h7.658v7.658h-7.658z" fill="#69b0ee"/><g fill="#eeefee" opacity=".3"><path d="m56.019 58.272v.478l-6.023 7.179h-1.635v-.105l6.348-7.552z"/><path d="m56.019 59.83v1.013l-4.264 5.086h-.86z"/></g><path d="m60.23 58.272h7.658v7.658h-7.658z" fill="#69b0ee"/><g fill="#eeefee" opacity=".3"><path d="m67.888 58.272v.478l-6.023 7.179h-1.635v-.105l6.348-7.552z"/><path d="m67.888 59.83v1.013l-4.264 5.086h-.86z"/></g><path d="m72.099 58.272h7.658v7.658h-7.658z" fill="#69b0ee"/><g fill="#eeefee" opacity=".3"><path d="m79.757 58.272v.478l-6.023 7.179h-1.635v-.105l6.348-7.552z"/><path d="m79.757 59.83v1.013l-4.264 5.086h-.861z"/></g><path d="m48.361 69.223h7.658v7.658h-7.658z" fill="#69b0ee"/><g fill="#eeefee" opacity=".3"><path d="m56.019 69.223v.478l-6.023 7.179h-1.635v-.105l6.348-7.552z"/><path d="m56.019 70.781v1.013l-4.264 5.086h-.86z"/></g><path d="m72.099 69.223h7.658v7.658h-7.658z" fill="#69b0ee"/><g fill="#eeefee" opacity=".3"><path d="m79.757 69.223v.478l-6.023 7.179h-1.635v-.105l6.348-7.552z"/><path d="m79.757 70.781v1.013l-4.264 5.086h-.861z"/></g><path d="m25.6 67.564h19.638v26.525h-19.638z" fill="#dbd8dd"/><path d="m28.783 78.224h5.205v5.205h-5.205z" fill="#69b0ee"/><g fill="#eeefee" opacity=".3"><path d="m33.988 78.224v.325l-4.094 4.88h-1.111v-.072l4.315-5.133z"/><path d="m33.988 79.283v.689l-2.898 3.457h-.585z"/></g><path d="m36.85 78.224h5.205v5.205h-5.205z" fill="#69b0ee"/><g fill="#eeefee" opacity=".3"><path d="m42.055 78.224v.325l-4.094 4.88h-1.111v-.072l4.315-5.133z"/><path d="m42.055 79.283v.689l-2.898 3.457h-.585z"/></g><path d="m28.783 70.781h5.205v5.205h-5.205z" fill="#69b0ee"/><g fill="#eeefee" opacity=".3"><path d="m33.988 70.781v.325l-4.094 4.88h-1.111v-.072l4.315-5.133z"/><path d="m33.988 71.84v.689l-2.898 3.457h-.585z"/></g><path d="m36.85 70.781h5.205v5.205h-5.205z" fill="#69b0ee"/><g fill="#eeefee" opacity=".3"><path d="m42.055 70.781v.325l-4.094 4.88h-1.111v-.072l4.315-5.133z"/><path d="m42.055 71.84v.689l-2.898 3.457h-.585z"/></g><path d="m28.783 85.667h5.205v5.205h-5.205z" fill="#69b0ee"/><g fill="#eeefee" opacity=".3"><path d="m33.988 85.667v.325l-4.094 4.88h-1.111v-.071l4.315-5.134z"/><path d="m33.988 86.727v.688l-2.898 3.457h-.585z"/></g><path d="m36.85 85.667h5.205v5.205h-5.205z" fill="#69b0ee"/><g fill="#eeefee" opacity=".3"><path d="m42.055 85.667v.325l-4.094 4.88h-1.111v-.071l4.315-5.134z"/><path d="m42.055 86.727v.688l-2.898 3.457h-.585z"/></g><path d="m82.762 67.564h19.638v26.525h-19.638z" fill="#dbd8dd"/><path d="m85.945 78.224h5.205v5.205h-5.205z" fill="#69b0ee"/><g fill="#eeefee" opacity=".3"><path d="m91.15 78.224v.325l-4.094 4.88h-1.111v-.072l4.315-5.133z"/><path d="m91.15 79.283v.689l-2.898 3.457h-.585z"/></g><path d="m94.012 78.224h5.205v5.205h-5.205z" fill="#69b0ee"/><g fill="#eeefee" opacity=".3"><path d="m99.217 78.224v.325l-4.094 4.88h-1.111v-.072l4.315-5.133z"/><path d="m99.217 79.283v.689l-2.898 3.457h-.585z"/></g><path d="m85.945 70.781h5.205v5.205h-5.205z" fill="#69b0ee"/><g fill="#eeefee" opacity=".3"><path d="m91.15 70.781v.325l-4.094 4.88h-1.111v-.072l4.315-5.133z"/><path d="m91.15 71.84v.689l-2.898 3.457h-.585z"/></g><path d="m94.012 70.781h5.205v5.205h-5.205z" fill="#69b0ee"/><g fill="#eeefee" opacity=".3"><path d="m99.217 70.781v.325l-4.094 4.88h-1.111v-.072l4.315-5.133z"/><path d="m99.217 71.84v.689l-2.898 3.457h-.585z"/></g><path d="m85.945 85.667h5.205v5.205h-5.205z" fill="#69b0ee"/><g fill="#eeefee" opacity=".3"><path d="m91.15 85.667v.325l-4.094 4.88h-1.111v-.071l4.315-5.134z"/><path d="m91.15 86.727v.688l-2.898 3.457h-.585z"/></g><path d="m94.012 85.667h5.205v5.205h-5.205z" fill="#69b0ee"/><g fill="#eeefee" opacity=".3"><path d="m99.217 85.667v.325l-4.094 4.88h-1.111v-.071l4.315-5.134z"/><path d="m99.217 86.727v.688l-2.898 3.457h-.585z"/></g><rect fill="#dbd8dd" height="2.933" rx=".508" width="41.2" x="43.367" y="30.99"/><path d="m45.238 65.123h-20.691a.614.614 0 0 0 -.614.614v1.706a.614.614 0 0 0 .614.614h20.691z" fill="#bbbbcd"/><path d="m82.762 68.057h20.691a.614.614 0 0 0 .614-.614v-1.706a.614.614 0 0 0 -.614-.614h-20.691z" fill="#bbbbcd"/><path d="m23 94.089h82v2.921h-82z" fill="#575b6d"/></g></svg>