<svg id="Capa_1" enable-background="new 0 0 512 512" height="512" viewBox="0 0 512 512" width="512" xmlns="http://www.w3.org/2000/svg"><g><g><g><path d="m475.763 175.014h-319.219v-59.431c0-8.252 6.69-14.942 14.942-14.942h289.334c8.252 0 14.942 6.69 14.942 14.942v59.431z" fill="#c9e0fd"/><path d="m369.407 0h-168.331c-7.829 0-14.176 6.347-14.176 14.176v160.838h196.683v-160.838c0-7.829-6.347-14.176-14.176-14.176z" fill="#f7f4f7"/><path d="m431.231 0h-65.99c7.829 0 14.176 6.347 14.176 14.176v160.838h65.99v-160.838c0-7.829-6.347-14.176-14.176-14.176z" fill="#edeaed"/><g><g><path d="m391.365 68.282h-150.424c-4.364 0-7.901-3.538-7.901-7.901s3.537-7.901 7.901-7.901h150.424c4.364 0 7.901 3.538 7.901 7.901s-3.537 7.901-7.901 7.901z" fill="#665e66"/></g><g><path d="m391.365 105.153h-150.424c-4.364 0-7.901-3.538-7.901-7.901 0-4.364 3.537-7.901 7.901-7.901h150.424c4.364 0 7.901 3.538 7.901 7.901s-3.537 7.901-7.901 7.901z" fill="#665e66"/></g></g></g><g><g><g><g><g><g><g><path d="m20.466 453.741h405.748c12.901 0 23.36-10.458 23.36-23.36v-261.522c0-12.728-8.706-23.423-20.489-26.454h-401.798c-14.681 0-26.582 11.901-26.582 26.582v264.702c0 10.871 8.657 19.96 19.528 20.051.078.001.155.001.233.001z" fill="#5884c9"/><path d="m484.713 142.405h-66.394c14.681 0 26.582 11.901 26.582 26.582v254.518c0 12.556-10.178 22.734-22.734 22.734h-394.88c-14.681 0-26.582-11.901-26.582-26.582v26.599c0 14.681 11.901 26.582 26.582 26.582h457.425c14.681 0 26.582-11.901 26.582-26.582v-277.269c.001-14.681-11.9-26.582-26.581-26.582z" fill="#4478c1"/><path d="m94.066 494.858v-52.836c0-24.456-2.463-48.849-7.352-72.811l-.309-1.517v-120.146l4.338-31.895c2.213-16.269 3.323-32.669 3.323-49.088v-46.181c0-9.467-7.675-17.142-17.142-17.142h-6.407c-17.935 0-32.474 14.539-32.474 32.474v29.811c0 17.11 1.157 34.201 3.463 51.155l4.198 30.866v120.146c-5.094 24.971-7.661 50.391-7.661 75.876v35.956c0 17.935 14.539 32.474 32.474 32.474h6.407c9.467 0 17.142-7.675 17.142-17.142z" fill="#88a8d8"/><path d="m148.883 247.548 4.198-30.867c2.306-16.954 3.463-34.045 3.463-51.155v-29.811c0-17.935-14.539-32.474-32.474-32.474h-50.658c9.467 0 17.142 7.675 17.142 17.142v46.181c0 16.419-1.11 32.819-3.323 49.088l-4.338 31.895v120.146l.309 1.517c4.889 23.962 7.352 48.355 7.352 72.811v52.836c0 9.467-7.675 17.142-17.142 17.142h50.659c17.935 0 32.474-14.539 32.474-32.474v-35.955c0-25.485-2.567-50.905-7.661-75.875v-120.147z" fill="#7296d1"/></g></g></g></g></g></g></g><g><path d="m422.362 264.032h-212.417c-5.786 0-10.477-4.691-10.477-10.477v-49.564c0-5.786 4.691-10.477 10.477-10.477h212.416c5.786 0 10.477 4.691 10.477 10.477v49.564c0 5.786-4.69 10.477-10.476 10.477z" fill="#f4e066"/><g fill="#3b69ad"><g><path d="m227.726 340.472h-20.794c-4.122 0-7.464-3.342-7.464-7.464v-20.01c0-4.122 3.342-7.464 7.464-7.464h20.794c4.122 0 7.464 3.342 7.464 7.464v20.01c0 4.122-3.342 7.464-7.464 7.464z"/><path d="m293.609 340.472h-20.794c-4.122 0-7.464-3.342-7.464-7.464v-20.01c0-4.122 3.342-7.464 7.464-7.464h20.794c4.122 0 7.464 3.342 7.464 7.464v20.01c0 4.122-3.342 7.464-7.464 7.464z"/><path d="m359.492 340.472h-20.794c-4.122 0-7.464-3.342-7.464-7.464v-20.01c0-4.122 3.342-7.464 7.464-7.464h20.794c4.122 0 7.464 3.342 7.464 7.464v20.01c0 4.122-3.342 7.464-7.464 7.464z"/><path d="m425.375 340.472h-20.794c-4.122 0-7.464-3.342-7.464-7.464v-20.01c0-4.122 3.342-7.464 7.464-7.464h20.794c4.122 0 7.464 3.342 7.464 7.464v20.01c-.001 4.122-3.342 7.464-7.464 7.464z"/></g><g><path d="m227.726 415.605h-20.794c-4.122 0-7.464-3.342-7.464-7.464v-20.01c0-4.122 3.342-7.464 7.464-7.464h20.794c4.122 0 7.464 3.342 7.464 7.464v20.01c0 4.122-3.342 7.464-7.464 7.464z"/><path d="m293.609 415.605h-20.794c-4.122 0-7.464-3.342-7.464-7.464v-20.01c0-4.122 3.342-7.464 7.464-7.464h20.794c4.122 0 7.464 3.342 7.464 7.464v20.01c0 4.122-3.342 7.464-7.464 7.464z"/><path d="m359.492 415.605h-20.794c-4.122 0-7.464-3.342-7.464-7.464v-20.01c0-4.122 3.342-7.464 7.464-7.464h20.794c4.122 0 7.464 3.342 7.464 7.464v20.01c0 4.122-3.342 7.464-7.464 7.464z"/><path d="m425.375 415.605h-20.794c-4.122 0-7.464-3.342-7.464-7.464v-20.01c0-4.122 3.342-7.464 7.464-7.464h20.794c4.122 0 7.464 3.342 7.464 7.464v20.01c-.001 4.122-3.342 7.464-7.464 7.464z"/></g></g></g></g></g></svg>