<svg xmlns="http://www.w3.org/2000/svg" x="0px" y="0px" height="512" width="512" 
	 viewBox="0 0 512 512" style="enable-background:new 0 0 512 512;" xml:space="preserve">
<g>
	<path style="fill:#ECF0F1;" d="M494.345,512H17.655C7.91,512,0,504.09,0,494.345V70.621h512v423.724
		C512,504.09,504.09,512,494.345,512"/>
	<path style="fill:#35495E;" d="M512,70.621H0V17.655C0,7.91,7.91,0,17.655,0h476.69C504.09,0,512,7.91,512,17.655V70.621z"/>
	<path style="fill:#E64C3C;" d="M44.138,35.31c0,4.873-3.955,8.828-8.828,8.828s-8.828-3.955-8.828-8.828s3.955-8.828,8.828-8.828
		S44.138,30.438,44.138,35.31"/>
	<path style="fill:#F0C419;" d="M79.448,35.31c0,4.873-3.955,8.828-8.828,8.828s-8.828-3.955-8.828-8.828s3.955-8.828,8.828-8.828
		S79.448,30.438,79.448,35.31"/>
	<path style="fill:#24AE5F;" d="M114.759,35.31c0,4.873-3.955,8.828-8.828,8.828c-4.873,0-8.828-3.955-8.828-8.828
		s3.955-8.828,8.828-8.828C110.804,26.483,114.759,30.438,114.759,35.31"/>
	<g>
		<path style="fill:#CC66A1;" d="M397.241,264.828c0,4.873-3.955,8.828-8.828,8.828s-8.828-3.955-8.828-8.828
			s3.955-8.828,8.828-8.828S397.241,259.955,397.241,264.828"/>
		<path style="fill:#CC66A1;" d="M397.241,317.793c0,4.873-3.955,8.828-8.828,8.828s-8.828-3.955-8.828-8.828
			c0-4.873,3.955-8.828,8.828-8.828S397.241,312.92,397.241,317.793"/>
		<path style="fill:#CC66A1;" d="M176.552,264.828h-52.966c-4.873,0-8.828-3.955-8.828-8.828s3.955-8.828,8.828-8.828h52.966
			c4.873,0,8.828,3.955,8.828,8.828S181.425,264.828,176.552,264.828"/>
		<path style="fill:#CC66A1;" d="M150.069,335.448c-4.873,0-8.828-3.955-8.828-8.828V256c0-4.873,3.955-8.828,8.828-8.828
			c4.873,0,8.828,3.955,8.828,8.828v70.621C158.897,331.493,154.942,335.448,150.069,335.448"/>
		<path style="fill:#CC66A1;" d="M264.828,264.828h-52.966c-4.873,0-8.828-3.955-8.828-8.828s3.955-8.828,8.828-8.828h52.966
			c4.873,0,8.828,3.955,8.828,8.828S269.7,264.828,264.828,264.828"/>
		<path style="fill:#CC66A1;" d="M238.345,335.448c-4.873,0-8.828-3.955-8.828-8.828V256c0-4.873,3.955-8.828,8.828-8.828
			c4.873,0,8.828,3.955,8.828,8.828v70.621C247.172,331.493,243.218,335.448,238.345,335.448"/>
		<path style="fill:#CC66A1;" d="M300.138,335.448c-4.873,0-8.828-3.955-8.828-8.828V256c0-4.873,3.955-8.828,8.828-8.828
			c4.873,0,8.828,3.955,8.828,8.828v70.621C308.966,331.493,305.011,335.448,300.138,335.448"/>
		<path style="fill:#CC66A1;" d="M35.31,335.448c-4.873,0-8.828-3.955-8.828-8.828V256c0-4.873,3.955-8.828,8.828-8.828
			s8.828,3.955,8.828,8.828v70.621C44.138,331.493,40.183,335.448,35.31,335.448"/>
		<path style="fill:#CC66A1;" d="M88.276,335.448c-4.873,0-8.828-3.955-8.828-8.828V256c0-4.873,3.955-8.828,8.828-8.828
			c4.873,0,8.828,3.955,8.828,8.828v70.621C97.103,331.493,93.149,335.448,88.276,335.448"/>
		<path style="fill:#CC66A1;" d="M88.276,300.138H35.31c-4.873,0-8.828-3.955-8.828-8.828c0-4.873,3.955-8.828,8.828-8.828h52.966
			c4.873,0,8.828,3.955,8.828,8.828C97.103,296.183,93.149,300.138,88.276,300.138"/>
		<path style="fill:#CC66A1;" d="M308.966,282.483h17.655c4.864,0,8.828-3.964,8.828-8.828c0-4.864-3.964-8.828-8.828-8.828h-17.655
			V282.483z M326.621,300.138h-26.483c-4.873,0-8.828-3.955-8.828-8.828V256c0-4.873,3.955-8.828,8.828-8.828h26.483
			c14.601,0,26.483,11.882,26.483,26.483C353.103,288.256,341.221,300.138,326.621,300.138L326.621,300.138z"/>
		<path style="fill:#CC66A1;" d="M423.733,335.448c-0.715,0-1.43-0.079-2.154-0.265c-4.723-1.183-7.601-5.976-6.418-10.708
			l17.655-70.621c1.183-4.723,6.003-7.592,10.708-6.418c4.723,1.183,7.601,5.976,6.418,10.708l-17.655,70.621
			C431.281,332.773,427.688,335.448,423.733,335.448"/>
		<path style="fill:#CC66A1;" d="M459.043,335.448c-0.715,0-1.43-0.079-2.154-0.265c-4.723-1.183-7.601-5.976-6.418-10.708
			l17.655-70.621c1.183-4.723,5.994-7.592,10.708-6.418c4.723,1.183,7.601,5.976,6.418,10.708l-17.655,70.621
			C466.591,332.773,462.998,335.448,459.043,335.448"/>
	</g>
</g>
<g>
</g>
<g>
</g>
<g>
</g>
<g>
</g>
<g>
</g>
<g>
</g>
<g>
</g>
<g>
</g>
<g>
</g>
<g>
</g>
<g>
</g>
<g>
</g>
<g>
</g>
<g>
</g>
<g>
</g>
</svg>